<?xml version="1.0" standalone="no"?>
<!DOCTYPE svg PUBLIC "-//W3C//DTD SVG 20010904//EN"
 "http://www.w3.org/TR/2001/REC-SVG-20010904/DTD/svg10.dtd">
<svg version="1.0" xmlns="http://www.w3.org/2000/svg"
 width="699.221299pt" height="647.196867pt" viewBox="0 0 699.221299 647.196867"
 preserveAspectRatio="xMidYMid meet">
<metadata>
Created by potrace 1.16, written by Peter Selinger 2001-2019
</metadata>
<g transform="translate(-610.231508,1283.625873) scale(0.100000,-0.100000)"
fill="#000000" stroke="none">
<path d="M9505 12834 c-173 -12 -368 -51 -520 -105 -102 -36 -255 -105 -255
-116 0 -4 46 -23 103 -41 283 -92 555 -285 745 -526 l22 -29 23 29 c189 241
461 434 744 526 57 18 103 37 103 41 0 10 -145 77 -242 112 -216 78 -514 123
-723 109z"/>
<path d="M8202 12445 c-28 -35 -28 -75 -1 -109 19 -24 26 -26 99 -26 l78 0
-44 -89 c-25 -49 -56 -133 -70 -188 -23 -88 -25 -112 -21 -238 5 -145 16 -206
62 -319 l24 -60 -19 -76 c-40 -160 -54 -288 -54 -495 0 -164 4 -223 23 -328
78 -444 272 -824 577 -1132 41 -41 74 -81 74 -89 0 -33 -55 -199 -97 -294 -25
-58 -42 -107 -37 -111 5 -5 188 -135 407 -290 l397 -281 398 281 c218 155 401
285 406 290 5 4 -12 53 -37 111 -42 95 -97 261 -97 294 0 8 33 48 74 89 305
308 499 688 577 1132 19 105 23 164 23 328 0 207 -14 335 -54 495 l-19 76 24
60 c46 113 57 174 62 319 4 126 2 150 -21 238 -14 55 -45 139 -70 188 l-44 89
78 0 c73 0 80 2 99 26 27 34 27 74 -1 109 l-21 28 -161 -6 c-281 -10 -496 -79
-729 -234 -179 -119 -387 -354 -461 -520 -11 -24 -22 -43 -26 -43 -4 0 -15 19
-26 43 -10 23 -50 89 -88 147 -132 198 -344 380 -557 479 -192 88 -328 121
-545 128 l-161 6 -21 -28z m476 -175 c23 -6 42 -13 42 -16 0 -4 -12 -20 -26
-37 -125 -149 -141 -397 -36 -576 149 -254 512 -318 746 -132 21 17 42 31 46
31 3 0 38 -83 76 -185 38 -102 71 -185 74 -185 3 0 36 83 74 185 38 102 73
185 76 185 4 0 25 -14 46 -31 197 -157 491 -141 669 37 180 179 198 469 42
667 -16 21 -27 40 -24 43 3 3 29 12 58 20 l54 14 48 -51 c53 -57 127 -202 148
-289 19 -79 16 -241 -5 -320 -51 -192 -184 -355 -361 -443 -71 -36 -117 -51
-325 -107 -142 -38 -306 -117 -415 -199 -44 -34 -82 -61 -85 -61 -3 0 -41 27
-85 61 -109 82 -273 161 -415 199 -208 56 -254 71 -325 107 -177 88 -310 251
-361 443 -21 79 -24 241 -5 320 31 133 166 348 210 336 9 -3 35 -10 59 -16z
m319 -138 l62 -36 -57 -28 c-36 -17 -66 -40 -81 -63 -28 -42 -38 -118 -22
-168 25 -74 131 -137 204 -122 85 18 157 94 157 163 0 18 2 32 5 32 7 0 63
-64 93 -106 15 -20 22 -39 18 -51 -10 -31 -87 -103 -141 -131 -44 -24 -61 -27
-145 -27 -111 0 -167 22 -236 90 -68 68 -89 124 -89 235 0 109 20 163 86 232
42 45 31 46 146 -20z m1378 -10 c51 -69 68 -129 63 -220 -6 -127 -71 -227
-183 -282 -42 -21 -64 -25 -145 -25 -84 0 -101 3 -145 27 -54 28 -131 100
-141 131 -4 12 3 31 18 51 30 42 86 106 93 106 3 0 5 -14 5 -31 0 -70 73 -146
157 -164 73 -15 179 48 204 122 16 50 6 126 -22 168 -15 23 -45 46 -82 64
l-57 28 81 46 c95 53 100 52 154 -21z m-1719 -1058 c85 -53 200 -97 344 -130
260 -61 386 -124 543 -272 l57 -55 58 55 c156 148 282 211 542 272 214 50 351
116 477 231 41 37 64 52 67 43 34 -104 46 -453 22 -618 -81 -554 -369 -1008
-831 -1313 -110 -72 -300 -167 -335 -167 -14 0 -75 24 -135 54 -496 244 -856
686 -989 1214 -46 179 -59 308 -53 507 5 154 16 273 33 323 3 9 26 -6 67 -43
34 -31 94 -77 133 -101z m502 -1933 c99 -71 213 -135 335 -185 l107 -45 108
45 c121 50 235 114 334 185 37 27 70 49 72 49 2 0 9 -24 16 -52 7 -29 27 -81
45 -115 l33 -63 -304 -210 -304 -210 -304 210 -304 210 33 63 c18 34 38 86 45
115 7 28 14 52 16 52 2 0 35 -22 72 -49z"/>
<path d="M8944 10707 c172 -347 254 -733 240 -1123 -4 -124 4 -112 32 45 24
130 23 362 0 496 -21 120 -81 305 -131 406 -40 80 -154 256 -183 282 -10 9 9
-39 42 -106z"/>
<path d="M10293 10808 c-39 -42 -133 -189 -174 -270 -54 -107 -113 -289 -135
-413 -23 -134 -24 -366 0 -496 28 -157 36 -169 32 -45 -14 390 68 776 240
1123 33 68 60 123 59 123 -1 0 -11 -10 -22 -22z"/>
<path d="M8900 8603 l1 -98 342 -240 c188 -131 349 -239 357 -239 8 0 169 108
357 239 l342 240 1 98 c0 53 -3 97 -6 97 -3 0 -157 -104 -342 -232 -185 -128
-344 -232 -352 -232 -8 0 -167 104 -352 232 -185 128 -339 232 -342 232 -3 0
-6 -44 -6 -97z"/>
<path d="M6375 7567 c-101 -34 -172 -90 -221 -173 -97 -166 -53 -395 97 -504
76 -55 141 -72 254 -68 114 5 166 24 237 88 l43 39 -52 52 -52 52 -54 -37
c-94 -65 -199 -61 -278 11 -97 87 -96 259 1 347 76 68 181 70 278 5 l47 -32
52 59 52 58 -22 24 c-12 13 -51 37 -87 54 -56 27 -78 32 -160 35 -61 2 -109
-2 -135 -10z"/>
<path d="M7375 7563 c-173 -62 -268 -192 -268 -368 0 -150 75 -270 211 -337
63 -31 72 -33 177 -33 103 0 114 2 177 32 82 39 142 99 182 183 28 59 31 74
31 160 0 86 -3 101 -31 160 -39 82 -98 141 -182 182 -56 28 -77 33 -156 35
-68 3 -103 -1 -141 -14z m228 -165 c78 -43 127 -148 111 -236 -28 -157 -177
-234 -315 -164 -74 37 -112 99 -117 191 -3 57 0 73 25 120 15 30 40 62 54 73
69 52 165 58 242 16z"/>
<path d="M8260 7200 l0 -370 80 0 80 0 2 233 3 232 97 -147 c54 -82 101 -148
105 -148 4 0 52 67 105 148 l98 147 0 -232 0 -233 85 0 85 0 0 370 0 370 -89
0 -90 0 -93 -150 c-51 -82 -96 -150 -100 -150 -4 0 -49 68 -100 150 l-93 150
-87 0 -88 0 0 -370z"/>
<path d="M9400 7201 l0 -371 80 0 80 0 0 109 0 109 113 3 c98 4 119 7 169 32
99 49 140 118 139 238 0 98 -49 176 -139 220 -43 22 -62 24 -244 27 l-198 4 0
-371z m350 206 c79 -27 89 -143 17 -187 -25 -16 -50 -20 -119 -20 l-88 0 0
110 0 110 78 -1 c42 0 93 -5 112 -12z"/>
<path d="M10577 7563 c-11 -18 -307 -717 -307 -725 0 -5 37 -8 82 -6 l82 3 32
75 31 75 158 0 158 0 30 -77 30 -78 88 0 88 0 -33 78 c-18 42 -89 209 -157
369 l-124 293 -77 0 c-42 0 -79 -3 -81 -7z m133 -329 l39 -94 -94 0 c-107 0
-100 -12 -57 95 52 128 53 130 64 111 6 -10 27 -61 48 -112z"/>
<path d="M11385 7557 c-3 -6 -4 -172 -3 -367 l3 -355 82 -3 83 -3 2 228 3 227
173 -227 173 -227 69 0 70 0 0 370 0 370 -80 0 -80 0 -2 -222 -3 -222 -169
222 -169 222 -74 0 c-50 0 -75 -4 -78 -13z"/>
<path d="M12370 7565 c0 -2 63 -103 140 -224 l140 -220 0 -146 0 -146 83 3 82
3 3 148 3 147 132 208 c73 114 136 213 141 220 5 9 -14 12 -87 12 l-94 0 -88
-145 c-49 -80 -91 -142 -95 -138 -4 4 -44 70 -89 146 l-82 137 -95 0 c-52 0
-94 -2 -94 -5z"/>
<path d="M7470 6624 c0 -3 23 -40 50 -83 42 -65 50 -86 50 -125 0 -46 1 -47
28 -44 25 3 27 6 28 54 2 43 9 62 43 113 58 85 59 91 23 91 -25 0 -35 -8 -62
-50 l-33 -51 -34 51 c-28 41 -39 50 -63 50 -17 0 -30 -2 -30 -6z"/>
<path d="M7933 6610 c-98 -59 -74 -210 37 -240 115 -31 212 96 150 197 -37 62
-124 82 -187 43z m130 -61 c38 -47 4 -129 -54 -129 -40 0 -79 40 -79 80 0 46
42 84 83 76 18 -3 40 -16 50 -27z"/>
<path d="M8332 6525 c3 -103 4 -108 31 -131 22 -19 39 -24 82 -24 47 0 56 3
79 31 24 28 26 38 26 130 0 99 0 99 -25 99 -25 0 -25 -1 -25 -83 0 -96 -14
-127 -60 -127 -16 0 -32 6 -37 13 -4 6 -10 53 -13 102 l-5 90 -28 3 -29 4 4
-107z"/>
<path d="M8757 6623 c-4 -3 -7 -62 -7 -130 l0 -123 30 0 c28 0 30 2 30 40 0
35 3 40 24 40 16 0 32 -12 51 -40 23 -33 33 -40 62 -40 l34 0 -31 45 -31 44
20 20 c44 44 35 111 -19 138 -26 13 -152 18 -163 6z m148 -83 c0 -23 -4 -25
-47 -28 -48 -3 -48 -3 -48 28 0 31 0 31 48 28 43 -3 47 -5 47 -28z"/>
<path d="M9250 6600 c0 -28 2 -30 40 -30 l40 0 0 -101 0 -100 28 3 27 3 3 98
3 97 34 0 c32 0 35 2 35 30 l0 30 -105 0 -105 0 0 -30z"/>
<path d="M9696 6603 c-18 -36 -96 -220 -96 -227 0 -4 13 -6 29 -6 23 0 31 6
40 30 9 28 13 30 60 30 46 0 52 -3 66 -30 12 -23 22 -30 45 -30 35 0 39 -16
-40 163 -37 83 -46 97 -66 97 -16 0 -28 -9 -38 -27z m52 -88 c16 -35 16 -35
-17 -35 -28 0 -29 1 -18 30 14 37 20 37 35 5z"/>
<path d="M10094 6614 c-68 -33 -89 -135 -40 -199 43 -56 118 -67 189 -26 25
14 27 21 27 73 l0 58 -60 0 c-57 0 -60 -1 -60 -25 0 -21 5 -25 31 -25 26 0 30
-3 27 -22 -6 -46 -92 -35 -112 13 -17 40 -9 75 22 99 29 23 48 25 82 5 22 -12
27 -11 43 2 24 22 22 30 -13 48 -37 19 -96 19 -136 -1z"/>
<path d="M10470 6500 l0 -130 90 0 c89 0 90 0 90 25 0 24 -2 25 -65 25 l-65 0
0 105 0 105 -25 0 -25 0 0 -130z"/>
<path d="M10840 6500 l0 -130 30 0 30 0 0 130 0 130 -30 0 -30 0 0 -130z"/>
<path d="M11107 6623 c-4 -3 -7 -62 -7 -130 l0 -123 30 0 29 0 3 78 3 77 59
-77 c44 -59 64 -78 82 -78 l24 0 0 130 0 130 -25 0 c-23 0 -24 -3 -27 -77 l-3
-78 -60 77 c-57 73 -87 93 -108 71z"/>
<path d="M11540 6500 l0 -130 95 0 c95 0 95 0 95 25 0 24 -2 25 -64 25 -44 0
-65 4 -69 13 -9 25 8 36 63 39 51 3 55 5 55 28 0 23 -4 25 -57 28 -50 3 -58 6
-58 22 0 18 7 20 65 20 l65 0 0 30 0 30 -95 0 -95 0 0 -130z"/>
</g>
</svg>
