<?xml version="1.0" standalone="no"?>
<!DOCTYPE svg PUBLIC "-//W3C//DTD SVG 20010904//EN"
 "http://www.w3.org/TR/2001/REC-SVG-20010904/DTD/svg10.dtd">
<svg version="1.0" xmlns="http://www.w3.org/2000/svg"
 width="699.232517pt" height="647.086921pt" viewBox="0 0 699.232517 647.086921"
 preserveAspectRatio="xMidYMid meet">
<metadata>
Created by potrace 1.16, written by Peter Selinger 2001-2019
</metadata>
<g transform="translate(-200.231508,713.609076) scale(0.100000,-0.100000)"
fill="currentColor" stroke="none">
<path d="M5405 7134 c-175 -12 -368 -51 -522 -105 -97 -35 -253 -106 -253
-117 0 -4 46 -22 102 -40 286 -93 555 -284 746 -526 l22 -29 23 29 c190 243
459 433 744 526 57 18 101 38 100 43 -6 17 -238 113 -362 149 -178 51 -436 81
-600 70z"/>
<path d="M4102 6745 c-28 -35 -28 -75 -1 -109 19 -24 26 -26 99 -26 l79 0 -44
-87 c-25 -49 -56 -132 -71 -188 -23 -90 -25 -114 -21 -240 5 -145 16 -206 62
-319 l24 -60 -19 -76 c-41 -163 -54 -288 -54 -495 0 -162 5 -225 23 -328 77
-441 270 -820 571 -1126 l83 -84 -13 -56 c-16 -72 -53 -175 -98 -274 -20 -45
-31 -81 -26 -86 5 -4 188 -135 406 -290 l398 -282 397 282 c219 155 402 285
407 290 5 4 -11 53 -37 111 -42 95 -97 261 -97 294 0 8 36 50 79 94 503 512
712 1266 540 1953 -17 68 -18 80 -5 105 7 15 26 65 41 112 24 72 28 107 32
230 4 131 2 154 -21 243 -14 54 -45 138 -70 188 l-45 89 79 0 c73 0 80 2 99
26 27 34 27 74 -1 109 l-21 28 -161 -6 c-281 -10 -496 -79 -729 -234 -179
-119 -387 -354 -461 -520 -11 -24 -22 -43 -26 -43 -4 0 -15 19 -26 43 -74 165
-280 399 -459 519 -233 156 -449 225 -731 235 l-161 6 -21 -28z m476 -175 c23
-6 42 -13 42 -16 0 -4 -12 -20 -26 -37 -14 -16 -38 -55 -53 -86 -135 -270 -8
-594 276 -701 155 -59 368 -24 486 80 19 16 39 30 44 30 5 0 40 -81 78 -180
37 -99 71 -182 74 -184 3 -2 37 79 75 180 38 101 73 184 76 184 4 0 25 -14 46
-31 273 -218 684 -94 794 241 50 150 13 351 -86 469 -14 18 -24 34 -21 37 3 3
29 12 58 20 l54 14 48 -51 c53 -57 127 -202 148 -289 19 -79 16 -241 -5 -320
-51 -192 -184 -355 -361 -443 -71 -36 -117 -51 -325 -107 -142 -38 -306 -117
-415 -199 -44 -34 -82 -61 -85 -61 -3 0 -41 27 -85 61 -109 82 -273 161 -415
199 -208 56 -254 71 -325 107 -177 88 -310 251 -361 443 -21 79 -24 241 -5
320 31 133 166 348 210 336 9 -3 35 -10 59 -16z m319 -138 l62 -36 -57 -28
c-36 -17 -66 -40 -81 -63 -28 -42 -38 -118 -22 -168 25 -74 131 -137 204 -122
85 18 157 94 157 163 0 18 2 32 5 32 7 0 63 -64 93 -106 15 -20 22 -39 18 -51
-10 -31 -87 -103 -141 -131 -44 -24 -61 -27 -145 -27 -111 0 -167 22 -236 90
-68 68 -89 124 -89 235 0 109 20 163 86 232 42 45 31 46 146 -20z m1378 -10
c51 -69 68 -129 63 -220 -6 -127 -71 -227 -183 -282 -42 -21 -64 -25 -145 -25
-84 0 -101 3 -145 27 -54 28 -131 100 -141 131 -4 12 3 31 18 51 30 42 86 106
93 106 3 0 5 -14 5 -31 0 -70 73 -146 157 -164 70 -14 170 42 199 112 21 49
17 114 -9 164 -19 35 -36 50 -85 75 l-62 31 82 46 c94 53 99 52 153 -21z
m-1719 -1058 c85 -53 200 -97 344 -130 260 -61 386 -124 543 -272 l57 -55 58
55 c159 151 273 207 563 278 208 50 335 113 461 229 38 35 59 48 62 39 34
-104 46 -453 22 -618 -81 -554 -369 -1008 -831 -1313 -108 -71 -300 -167 -334
-167 -13 0 -74 24 -135 54 -493 239 -857 686 -990 1214 -46 179 -59 308 -53
507 5 154 16 273 33 323 3 9 26 -6 67 -43 34 -31 94 -77 133 -101z m501 -1932
c129 -91 253 -158 396 -212 l48 -19 107 45 c119 50 229 111 333 185 38 27 71
49 74 49 3 0 8 -18 11 -40 4 -21 23 -73 43 -115 l37 -76 -303 -210 -303 -210
-304 211 -304 210 33 62 c18 35 38 87 45 116 7 28 14 52 16 52 2 0 34 -22 71
-48z"/>
<path d="M4844 5007 c171 -346 255 -736 240 -1120 -5 -127 4 -115 32 42 24
130 23 363 0 496 -36 203 -117 404 -230 574 -96 144 -110 147 -42 8z"/>
<path d="M6186 5100 c-50 -60 -140 -206 -181 -294 -55 -117 -98 -255 -121
-381 -23 -131 -24 -365 -1 -495 28 -158 38 -171 33 -44 -15 387 67 769 238
1117 35 70 62 127 61 127 -2 0 -15 -14 -29 -30z"/>
<path d="M4800 2903 l1 -98 342 -240 c188 -131 349 -239 357 -239 8 0 169 108
357 239 l342 240 1 98 c0 53 -3 97 -6 97 -4 0 -157 -104 -342 -232 -185 -128
-343 -232 -352 -232 -8 0 -167 104 -352 232 -185 128 -339 232 -342 232 -3 0
-6 -44 -6 -97z"/>
<path d="M2275 1867 c-101 -34 -172 -90 -221 -173 -97 -166 -53 -395 97 -504
76 -55 141 -72 254 -68 114 5 166 24 237 88 l43 39 -52 52 -52 52 -54 -37
c-94 -65 -199 -61 -278 11 -126 114 -82 340 77 390 67 21 133 8 203 -38 l46
-32 52 59 52 58 -21 24 c-12 12 -51 37 -85 54 -55 27 -76 32 -161 35 -63 2
-111 -2 -137 -10z"/>
<path d="M3275 1862 c-172 -59 -268 -191 -268 -367 0 -150 75 -270 211 -337
63 -31 72 -33 177 -33 102 0 115 2 176 31 214 102 285 361 152 561 -40 61
-130 125 -206 148 -67 20 -180 19 -242 -3z m228 -164 c78 -43 130 -156 111
-241 -33 -154 -179 -228 -315 -159 -73 37 -112 98 -117 188 -12 182 164 298
321 212z"/>
<path d="M4160 1500 l0 -370 80 0 80 0 2 232 3 233 97 -148 c54 -81 101 -147
105 -147 5 0 52 67 105 148 l98 147 0 -232 0 -233 85 0 85 0 0 370 0 370 -89
0 -90 0 -93 -150 c-51 -82 -96 -150 -100 -150 -4 0 -49 68 -100 150 l-93 150
-87 0 -88 0 0 -370z"/>
<path d="M5300 1501 l0 -371 80 0 80 0 0 110 0 110 93 0 c156 0 254 45 304
139 27 52 32 170 9 225 -21 49 -71 101 -124 127 -43 22 -62 24 -244 27 l-198
4 0 -371z m350 206 c79 -27 89 -143 17 -187 -25 -16 -50 -20 -119 -20 l-88 0
0 110 0 110 78 -1 c42 0 93 -5 112 -12z"/>
<path d="M6476 1862 c-10 -17 -306 -716 -306 -724 0 -4 37 -8 83 -8 l82 0 30
78 31 77 158 0 159 0 30 -77 30 -78 88 0 88 0 -35 83 c-19 45 -90 211 -157
369 l-122 288 -77 0 c-42 0 -79 -4 -82 -8z m134 -328 l39 -94 -95 0 c-52 0
-94 1 -94 3 0 1 16 41 36 87 20 47 40 96 46 110 9 23 10 24 20 6 6 -10 27 -61
48 -112z"/>
<path d="M7285 1857 c-3 -6 -4 -172 -3 -367 l3 -355 82 -3 83 -3 2 228 3 227
173 -227 173 -227 69 0 70 0 0 370 0 370 -80 0 -80 0 0 -222 -1 -223 -25 30
c-13 17 -90 117 -170 223 l-147 192 -74 0 c-50 0 -75 -4 -78 -13z"/>
<path d="M8270 1865 c0 -2 63 -103 140 -224 l140 -220 0 -146 0 -145 85 0 85
0 0 150 0 150 133 207 c73 115 137 214 141 221 5 9 -14 12 -88 12 l-94 0 -88
-145 c-48 -80 -90 -142 -94 -138 -4 4 -44 70 -89 146 l-82 137 -95 0 c-52 0
-94 -2 -94 -5z"/>
<path d="M3370 924 c0 -3 23 -40 50 -83 42 -65 50 -86 50 -125 0 -46 1 -47 28
-44 25 3 27 6 28 54 2 43 9 62 43 113 58 85 59 91 23 91 -25 0 -35 -8 -62 -50
-18 -27 -33 -50 -35 -50 -1 0 -16 23 -33 50 -26 42 -36 50 -62 50 -16 0 -30
-2 -30 -6z"/>
<path d="M3833 910 c-98 -59 -74 -210 37 -240 115 -31 212 96 150 197 -37 62
-124 82 -187 43z m130 -61 c40 -49 4 -129 -58 -129 -68 0 -99 87 -49 137 20
20 31 24 57 19 18 -3 40 -16 50 -27z"/>
<path d="M4232 825 c3 -103 4 -108 31 -131 22 -19 39 -24 82 -24 47 0 56 3 79
31 24 28 26 38 26 130 0 99 0 99 -25 99 -25 0 -25 -1 -25 -83 0 -91 -15 -127
-53 -127 -45 0 -52 14 -57 112 l-5 93 -28 3 -29 4 4 -107z"/>
<path d="M4657 923 c-4 -3 -7 -62 -7 -130 l0 -123 30 0 c28 0 30 2 30 40 0 35
3 40 24 40 16 0 32 -12 51 -40 23 -33 33 -40 62 -40 l34 0 -31 45 -31 44 20
20 c44 44 35 111 -19 138 -26 13 -152 18 -163 6z m148 -83 c0 -23 -4 -25 -47
-28 -48 -3 -48 -3 -48 28 0 31 0 31 48 28 43 -3 47 -5 47 -28z"/>
<path d="M5150 900 c0 -28 2 -30 40 -30 l40 0 0 -101 0 -100 28 3 27 3 3 98 3
97 34 0 c32 0 35 2 35 30 l0 30 -105 0 -105 0 0 -30z"/>
<path d="M5596 903 c-18 -36 -96 -220 -96 -227 0 -4 13 -6 29 -6 23 0 31 6 40
30 9 28 13 30 60 30 46 0 52 -3 66 -30 12 -23 22 -30 45 -30 35 0 39 -16 -40
163 -37 83 -46 97 -66 97 -16 0 -28 -9 -38 -27z m52 -88 c16 -35 16 -35 -17
-35 -28 0 -29 1 -18 30 14 37 20 37 35 5z"/>
<path d="M5994 914 c-86 -42 -90 -177 -8 -231 36 -23 111 -22 152 2 30 18 32
23 32 77 l0 58 -60 0 c-57 0 -60 -1 -60 -25 0 -21 5 -25 31 -25 26 0 30 -3 27
-22 -6 -46 -92 -35 -112 13 -17 40 -9 75 22 99 29 23 48 25 82 5 22 -12 27
-11 43 2 24 22 22 30 -13 48 -37 19 -96 19 -136 -1z"/>
<path d="M6370 800 l0 -130 90 0 c89 0 90 0 90 25 0 24 -2 25 -65 25 l-65 0 0
105 0 105 -25 0 -25 0 0 -130z"/>
<path d="M6740 800 l0 -130 30 0 30 0 0 130 0 130 -30 0 -30 0 0 -130z"/>
<path d="M7007 923 c-4 -3 -7 -62 -7 -130 l0 -123 30 0 29 0 3 77 3 77 59 -77
c44 -58 65 -77 82 -77 24 0 24 0 24 130 l0 130 -25 0 c-23 0 -24 -3 -27 -77
l-3 -78 -60 77 c-57 73 -87 93 -108 71z"/>
<path d="M7440 800 l0 -130 95 0 c95 0 95 0 95 25 0 24 -2 25 -64 25 -44 0
-65 4 -69 13 -9 25 8 36 63 39 51 3 55 5 55 28 0 23 -4 25 -57 28 -50 3 -58 6
-58 22 0 18 7 20 65 20 l65 0 0 30 0 30 -95 0 -95 0 0 -130z"/>
</g>
</svg>
