<?xml version="1.0" encoding="ISO-8859-1" standalone="no"?>
<!DOCTYPE svg PUBLIC "-//W3C//DTD SVG 1.1//EN" "http://www.w3.org/Graphics/SVG/1.1/DTD/svg11.dtd">
<svg version="1.1" baseProfile="full" id="body" width="8in" height="8in" viewBox="0 0 1 1" preserveAspectRatio="none" xmlns="http://www.w3.org/2000/svg" xmlns:xlink="http://www.w3.org/1999/xlink" xmlns:ev="http://www.w3.org/2001/xml-events">
<title>SVG drawing</title>
<desc>This was produced by version 4.4 of GNU libplot, a free library for exporting 2-D vector graphics.</desc>
<rect id="background" x="0" y="0" width="1" height="1" stroke="none" fill="white"/>
<g id="content" transform="translate(-0.03125,1.1875) scale(1,-1) scale(0.0017361) " xml:space="preserve" stroke="black" stroke-linecap="butt" stroke-linejoin="miter" stroke-miterlimit="10.433" stroke-dasharray="none" stroke-dashoffset="0" stroke-opacity="1" fill="none" fill-rule="evenodd" fill-opacity="1" font-style="normal" font-variant="normal" font-weight="normal" font-stretch="normal" font-size-adjust="none" letter-spacing="normal" word-spacing="normal" text-anchor="start">
<polygon points="0,0 3000,0 3000,3000 0,3000 " stroke="white" stroke-width="0" fill="white" />
<path d="M1582.2,1888.5 L1583.7,1888.4 L1585.2,1888.3 L1586.6,1888.1 L1588,1887.8 L1589.4,1887.5 L1590.8,1887.1 L1592.1,1886.6 L1593.4,1886.1 L1594.7,1885.5 L1595.9,1884.9 L1597.1,1884.2 L1598.3,1883.4 L1599.4,1882.6 L1600.5,1881.8 L1601.5,1880.8 L1602.5,1879.9 L1603.5,1878.9 L1604.4,1877.8 L1605.2,1876.7 L1606,1875.6 L1606.8,1874.4 L1607.4,1873.2 L1608.1,1872 L1608.7,1870.7 L1609.2,1869.4 L1609.6,1868.1 L1610,1866.7 L1610.3,1865.3 L1610.6,1863.9 L1610.8,1862.4 L1610.9,1861 L1610.9,1859.5 C1610.9,1843.5,1597.9,1830.5,1581.9,1830.5 C1565.9,1830.5,1552.9,1843.5,1552.9,1859.5 C1552.9,1860.8,1553,1862.2,1553.2,1863.5 C1545.8,1855.8,1539.1,1847.6,1533.1,1838.8 C1542.9,1819.4,1563.7,1808.1,1585.3,1810.3 C1607,1812.6,1624.9,1828,1630.5,1849.1 C1636.1,1870.1,1628.1,1892.4,1610.5,1905.1 C1600.6,1900.3,1591.2,1894.8,1582.2,1888.5 Z " stroke-width="0" fill="black" />
<path d="M1613.1,1694 L1608.4,1688.4 L1603.9,1682.6 L1599.6,1676.7 L1595.5,1670.8 L1591.6,1664.7 L1587.9,1658.5 L1584.4,1652.2 L1581.1,1645.8 L1578,1639.4 L1575.1,1632.8 L1572.4,1626.2 L1570,1619.5 L1567.7,1612.7 L1565.7,1605.9 L1563.8,1599 L1562.2,1592.1 L1560.8,1585.1 L1559.6,1578.1 L1558.6,1571 L1557.9,1563.9 L1557.3,1556.8 L1557,1549.7 L1556.9,1542.5 L1557,1535.4 L1557.4,1528.2 L1557.9,1521 L1558.7,1513.9 L1559.8,1506.7 L1561,1499.6 L1562.5,1492.4 L1564.2,1485.3 L1566.1,1478.3 C1558.8,1553.3,1575.2,1628.8,1613.1,1694 Z " stroke-width="0" fill="black" />
<path d="M1417.8,1888.5 L1414.4,1890.8 L1411,1893.1 L1407.5,1895.2 L1404,1897.4 L1400.5,1899.4 L1396.9,1901.4 L1393.2,1903.2 L1389.5,1905.1 C1371.9,1892.4,1363.9,1870.1,1369.5,1849.1 C1375.1,1828,1393,1812.6,1414.7,1810.3 C1436.3,1808.1,1457.1,1819.4,1466.9,1838.8 C1460.9,1847.6,1454.2,1855.8,1446.8,1863.5 C1447,1862.2,1447.1,1860.8,1447.1,1859.5 C1447.1,1843.5,1434.1,1830.5,1418.1,1830.5 C1402.1,1830.5,1389.1,1843.5,1389.1,1859.5 C1389.1,1875.4,1401.9,1888.3,1417.8,1888.5 Z " stroke-width="0" fill="black" />
<path d="M1386.9,1694 L1393.8,1681.6 L1400.1,1669.1 L1405.9,1656.3 L1411.3,1643.3 L1416.1,1630.2 L1420.4,1616.9 L1424.1,1603.4 L1427.4,1589.8 L1430.1,1576.1 L1432.2,1562.3 L1433.9,1548.4 L1435,1534.5 L1435.5,1520.5 L1435.5,1506.4 L1435,1492.3 L1433.9,1478.3 C1455.8,1553.5,1438.1,1634.7,1386.9,1694 Z " stroke-width="0" fill="black" />
<path d="M1500,1878.2 L1503.7,1883 L1507.5,1887.8 L1511.4,1892.4 L1515.4,1896.9 L1519.5,1901.4 L1523.8,1905.7 L1528.1,1910 L1532.6,1914.1 L1537.2,1918.1 L1541.8,1922 L1546.6,1925.8 L1551.5,1929.5 L1556.4,1933.1 L1561.5,1936.5 L1566.6,1939.9 L1571.8,1943.1 C1592.4,1955.3,1614.5,1964.4,1637.4,1970.2 C1596.6,1992.6,1549.8,2005.3,1500,2005.3 C1450.2,2005.3,1403.4,1992.6,1362.6,1970.2 C1385.5,1964.4,1407.6,1955.3,1428.2,1943.1 C1456.3,1926.3,1480.7,1904.2,1500,1878.2 Z " stroke-width="0" fill="black" />
<path d="M1500,1689 L1505.7,1693.7 L1511.2,1698.1 L1516.5,1702.1 L1521.8,1705.8 L1526.9,1709.2 L1531.9,1712.2 L1536.7,1715 L1541.5,1717.5 L1546.1,1719.8 L1550.7,1721.8 L1555.2,1723.7 L1559.6,1725.4 L1563.9,1726.9 L1568.1,1728.2 L1572.3,1729.5 L1576.4,1730.7 L1584.4,1732.8 L1592.3,1734.8 L1600.1,1736.8 L1607.9,1739 L1611.7,1740.2 L1615.6,1741.6 L1619.4,1743 L1623.3,1744.6 L1627.2,1746.4 L1631.1,1748.4 L1635.1,1750.5 L1639.1,1752.9 C1663.2,1768.2,1680.6,1792.7,1686.7,1821.2 C1694.4,1857.3,1682.9,1894.8,1656.3,1920.5 C1649.3,1919.1,1642.4,1917.2,1635.6,1915.1 C1656.1,1894.3,1663.5,1863.9,1654.6,1836 C1645.8,1808.2,1622.2,1787.6,1593.4,1782.5 C1567.4,1777.9,1541.1,1786.8,1523.1,1805.6 L1513.6,1780.7 L1500,1744.9 L1486.4,1780.7 L1476.9,1805.6 C1458.9,1786.8,1432.6,1777.9,1406.6,1782.5 C1377.8,1787.6,1354.2,1808.2,1345.4,1836 C1336.5,1863.9,1343.9,1894.3,1364.4,1915.1 C1357.6,1917.2,1350.7,1919.1,1343.7,1920.5 C1317.1,1894.8,1305.6,1857.3,1313.3,1821.2 C1319.4,1792.7,1336.8,1768.2,1360.9,1752.9 C1403.8,1725.9,1438.9,1741.9,1500,1689 Z " stroke-width="0" fill="black" />
<path d="M1500,1422.1 L1512.3,1427.2 L1524.3,1432.9 L1535.9,1439 L1547.2,1445.6 L1558.1,1452.6 L1568.6,1460.1 L1578.7,1468.1 L1588.4,1476.4 L1597.7,1485.1 L1606.6,1494.2 L1615.1,1503.7 L1623.1,1513.5 L1630.7,1523.6 L1637.8,1534 L1644.5,1544.7 L1650.7,1555.7 L1656.4,1566.9 L1661.6,1578.4 L1666.3,1590.1 L1670.6,1602 L1674.3,1614.1 L1677.4,1626.4 L1680.1,1638.9 L1682.2,1651.4 L1683.7,1664.1 L1684.7,1677 L1685.2,1689.9 L1685,1702.8 L1684.3,1715.9 L1682.9,1728.9 L1681,1742 L1678.4,1755.2 H1678.4 C1670.2,1745.8,1660.7,1737.5,1650.2,1730.7 C1598.2,1696.6,1558,1720,1500,1657.3 C1442,1720,1401.8,1696.6,1349.8,1730.7 C1339.3,1737.5,1329.8,1745.8,1321.6,1755.2 H1321.6 C1291,1615.3,1366.7,1474.1,1500,1422.1 Z " stroke-width="0" fill="black" />
<path d="M1500,1332.3 L1506.4,1336.7 L1512.6,1341 L1518.5,1345.1 L1524.2,1349 L1529.6,1352.8 L1534.8,1356.4 L1539.7,1359.8 L1544.4,1363 L1548.9,1366.1 L1553.1,1369.1 L1557.1,1371.9 L1560.9,1374.5 L1564.5,1377 L1567.9,1379.3 L1571,1381.5 L1574,1383.6 L1576.7,1385.5 L1579.3,1387.2 L1581.6,1388.8 L1583.8,1390.3 L1585.7,1391.7 L1587.5,1392.9 L1589.1,1394 L1590.5,1395 L1591.7,1395.8 L1592.8,1396.6 L1593.7,1397.2 L1594.4,1397.7 L1594.9,1398 L1595.3,1398.3 L1595.6,1398.5 L1595.6,1398.5 C1591.7,1404.1,1588.5,1410.1,1586.1,1416.4 C1584.7,1419.9,1583.6,1423.4,1582.7,1427.7 C1582,1430.4,1581.5,1433.3,1581.2,1436.1 C1552.8,1414.3,1533.7,1404,1500,1391.3 C1466.3,1404,1447.3,1414.3,1418.8,1436.1 C1418.5,1433.3,1418,1430.4,1417.3,1427.7 C1416.4,1423.4,1415.3,1419.9,1413.9,1416.4 C1411.5,1410.1,1408.3,1404.1,1404.4,1398.5 C1404.4,1398.5,1430.2,1380.7,1500,1332.3 Z " stroke-width="0" fill="black" />
<path d="M1500,1252.8 L1609.4,1329.7 V1360.2 C1568.5,1331.9,1529.5,1305.1,1500,1284.7 C1470.5,1305.1,1431.5,1331.9,1390.6,1360.2 V1329.7 L1500,1252.8 Z " stroke-width="0" fill="black" />
<path d="M1500,1821.2 L1503.7,1828.8 L1507.6,1836.3 L1511.8,1843.6 L1516.2,1850.7 L1520.9,1857.5 L1525.9,1864.2 L1531,1870.6 L1536.4,1876.8 L1542,1882.8 L1547.9,1888.6 L1553.9,1894.1 L1560.1,1899.4 L1566.5,1904.4 L1573.1,1909.2 L1579.8,1913.8 L1586.7,1918.1 L1593.8,1922.1 L1601,1925.9 L1608.4,1929.4 L1615.9,1932.6 L1623.5,1935.5 L1631.2,1938.2 L1639,1940.5 L1647,1942.6 L1655,1944.4 L1663.1,1945.9 L1671.3,1947 L1679.6,1947.9 L1687.9,1948.4 L1696.3,1948.7 L1704.8,1948.6 L1713.2,1948.1 C1718.4,1946.3,1721.9,1941.4,1721.9,1935.9 C1721.9,1930.4,1718.4,1925.5,1713.2,1923.6 C1705.1,1924.3,1697,1924.6,1688.9,1924.3 C1713.8,1887.7,1719.6,1841.5,1704.7,1799.8 C1702.8,1794.5,1700.6,1789.2,1698,1784.2 H1698 C1732.7,1662.2,1692.8,1535.5,1603.8,1454.8 H1603.8 C1608.1,1432.3,1616,1410.6,1627.1,1390.6 C1542.4,1330.5,1500,1300.4,1500,1300.4 C1500,1300.4,1457.6,1330.5,1372.9,1390.6 C1384,1410.6,1391.9,1432.3,1396.2,1454.8 H1396.2 C1307.2,1535.5,1267.3,1662.2,1302,1784.2 H1302 C1299.4,1789.2,1297.2,1794.5,1295.3,1799.8 C1280.4,1841.5,1286.2,1887.7,1311.1,1924.3 C1303,1924.6,1294.9,1924.3,1286.8,1923.6 C1281.6,1925.5,1278.1,1930.4,1278.1,1935.9 C1278.1,1941.4,1281.6,1946.3,1286.8,1948.1 C1377.4,1954.5,1462.4,1903.9,1500,1821.2 Z " stroke-width="0" fill="black" />
<polygon points="2046.4,1182.3 2017.7,1182.3 1989.7,1136.1 1962.3,1182.3 1932.7,1182.3 1976.9,1112.6 1976.9,1067.2 2002.2,1067.2 2002.2,1113.1 " stroke-width="0" fill="black" />
<polygon points="1881.5,1067.2 1881.5,1182.3 1856.5,1182.3 1856.5,1111.5 1802.6,1182.3 1779.2,1182.3 1779.2,1067.2 1804.2,1067.2 1804.2,1140.4 1859.9,1067.2 1881.5,1067.2 " stroke-width="0" fill="black" />
<polygon points="1680,1115.4 1649.4,1115.4 1664.7,1152.7 1680,1115.4 " stroke-width="0" fill="black" />
<polygon points="1726,1067.2 1676.7,1183.2 1653.4,1183.2 1604.1,1067.2 1629.9,1067.2 1640.4,1093.1 1689.1,1093.1 1699.6,1067.2 1726,1067.2 " stroke-width="0" fill="black" />
<path d="M1534.1,1141.7 L1534.1,1141.3 L1534.1,1140.8 L1534.1,1140.4 L1534,1139.9 L1534,1139.5 L1533.9,1139 L1533.9,1138.6 L1533.8,1138.2 L1533.7,1137.7 L1533.6,1137.3 L1533.5,1136.9 L1533.4,1136.5 L1533.2,1136.1 L1533.1,1135.7 L1533,1135.3 L1532.8,1134.9 L1532.6,1134.5 L1532.4,1134.2 L1532.3,1133.8 L1532.1,1133.4 L1531.8,1133 L1531.6,1132.7 L1531.4,1132.3 L1531.2,1132 L1530.9,1131.6 L1530.6,1131.3 L1530.4,1130.9 L1530.1,1130.6 L1529.8,1130.3 L1529.5,1129.9 L1529.2,1129.6 L1528.8,1129.3 C1525.3,1126,1520.4,1124.3,1514.1,1124.3 H1494 V1159.5 H1513.6 C1519.9,1159.5,1524.9,1158,1528.6,1155 C1532.3,1152.1,1534.1,1147.8,1534.1,1142.1 V1141.7 Z " stroke-width="0" fill="black" />
<path d="M1559.8,1142.2 V1142.5 C1559.8,1148.5,1558.7,1153.9,1556.7,1158.7 C1554.7,1163.6,1551.8,1167.8,1548,1171.3 C1544.2,1174.8,1539.6,1177.5,1534.2,1179.4 C1528.8,1181.4,1522.6,1182.3,1515.7,1182.3 H1468.7 V1067.2 H1494 V1101.8 H1513.2 C1519.7,1101.8,1525.8,1102.6,1531.4,1104.3 C1537,1106,1542,1108.6,1546.2,1112 C1550.4,1115.4,1553.7,1119.6,1556.1,1124.6 C1558.6,1129.7,1559.8,1135.5,1559.8,1142.2 Z " stroke-width="0" fill="black" />
<polygon points="1405.6,1067.2 1405.6,1182.3 1378.3,1182.3 1348.1,1133.7 1317.8,1182.3 1290.6,1182.3 1290.6,1067.2 1315.6,1067.2 1315.6,1141.9 1347.6,1093.2 1348.3,1093.2 1380.7,1142.4 1380.7,1067.2 1405.6,1067.2 " stroke-width="0" fill="black" />
<path d="M1206.2,1124.5 L1206.1,1123.5 L1206.1,1122.6 L1206.1,1121.7 L1206,1120.8 L1205.9,1119.9 L1205.8,1119 L1205.7,1118.2 L1205.5,1117.3 L1205.3,1116.4 L1205.2,1115.6 L1204.9,1114.7 L1204.7,1113.9 L1204.5,1113 L1204.2,1112.2 L1203.9,1111.4 L1203.6,1110.6 C1201.9,1106.2,1199.5,1102.4,1196.5,1099.1 C1193.5,1095.9,1189.9,1093.3,1185.6,1091.4 C1181.3,1089.6,1176.7,1088.6,1171.6,1088.6 C1166.5,1088.6,1161.8,1089.6,1157.6,1091.5 C1153.3,1093.4,1149.7,1096,1146.6,1099.3 C1143.4,1102.6,1141,1106.4,1139.3,1110.8 C1137.6,1115.2,1136.8,1119.9,1136.8,1124.8 V1125.1 C1136.8,1130.1,1137.6,1134.7,1139.3,1139 C1141,1143.3,1143.4,1147.2,1146.4,1150.4 C1149.4,1153.7,1153,1156.3,1157.2,1158.2 C1161.5,1160,1166.1,1161,1171.3,1161 C1176.3,1161,1181,1160,1185.3,1158.1 C1189.5,1156.2,1193.2,1153.6,1196.4,1150.3 C1199.5,1147,1201.9,1143.2,1203.6,1138.8 C1205.3,1134.4,1206.2,1129.7,1206.2,1124.8 V1124.5 Z " stroke-width="0" fill="black" />
<path d="M1232.6,1124.8 V1125.1 C1232.6,1133.3,1231.1,1141,1228.1,1148.2 C1225.1,1155.4,1220.9,1161.6,1215.4,1167 C1210,1172.3,1203.6,1176.5,1196.1,1179.6 C1188.7,1182.7,1180.5,1184.3,1171.6,1184.3 C1162.8,1184.3,1154.6,1182.7,1147.1,1179.6 C1139.5,1176.5,1133.1,1172.2,1127.7,1166.8 C1122.2,1161.4,1118,1155.1,1114.9,1147.9 C1111.8,1140.7,1110.3,1133,1110.3,1124.8 V1124.5 C1110.3,1116.2,1111.8,1108.5,1114.8,1101.4 C1117.8,1094.2,1122.1,1087.9,1127.5,1082.6 C1132.9,1077.3,1139.3,1073.1,1146.8,1070 C1154.2,1066.8,1162.4,1065.3,1171.3,1065.3 C1180.2,1065.3,1188.4,1066.8,1195.9,1070 C1203.4,1073.1,1209.8,1077.4,1215.3,1082.8 C1220.7,1088.2,1224.9,1094.5,1228,1101.7 C1231.1,1108.9,1232.6,1116.6,1232.6,1124.8 Z " stroke-width="0" fill="black" />
<path d="M1059.8,1085.8 L1043.6,1102.1 C1039.2,1097.9,1034.6,1094.7,1030.1,1092.2 C1025.5,1089.8,1020,1088.6,1013.4,1088.6 C1008.5,1088.6,1003.9,1089.6,999.83,1091.5 C995.72,1093.4,992.22,1096,989.31,1099.3 C986.41,1102.6,984.13,1106.4,982.49,1110.8 C980.84,1115.2,980.02,1119.9,980.02,1124.8 V1125.1 C980.02,1130.1,980.84,1134.7,982.49,1139 C984.13,1143.3,986.43,1147.2,989.4,1150.4 C992.35,1153.7,995.89,1156.3,1000,1158.2 C1004.1,1160,1008.6,1161,1013.4,1161 C1019.2,1161,1024.4,1159.8,1029.1,1157.5 C1033.8,1155.2,1038.3,1152,1042.8,1148 L1058.9,1166.6 C1056.3,1169.2,1053.4,1171.6,1050.4,1173.8 C1047.3,1176,1044,1177.8,1040.3,1179.4 C1036.7,1180.9,1032.7,1182.1,1028.3,1183 C1023.8,1183.9,1018.9,1184.3,1013.6,1184.3 C1004.7,1184.3,996.57,1182.7,989.23,1179.6 C981.89,1176.5,975.59,1172.2,970.32,1166.8 C965.06,1161.4,960.95,1155.1,958,1147.9 C955.03,1140.7,953.55,1133,953.55,1124.8 V1124.5 C953.55,1116.2,955.03,1108.5,958,1101.3 C960.95,1094.1,965.06,1087.8,970.32,1082.5 C975.59,1077.1,981.83,1072.9,989.07,1069.9 C996.3,1066.8,1004.1,1065.3,1012.6,1065.3 C1018.2,1065.3,1023.2,1065.8,1027.7,1066.7 C1032.2,1067.6,1036.3,1069,1040.1,1070.8 C1043.9,1072.6,1047.4,1074.8,1050.6,1077.3 C1053.7,1079.8,1056.8,1082.7,1059.8,1085.8 Z " stroke-width="0" fill="black" />
<polygon points="1526,1012.2 1520.6,1024.6 1515.3,1012.2 " stroke-width="0" fill="black" />
<path d="M1376.5,1027.6 V1016.3 H1385.5 C1387.4,1016.3,1389.3,1016.7,1390.7,1017.9 C1392,1018.9,1392.6,1020.3,1392.6,1022 C1392.6,1023.6,1392.1,1025.1,1390.8,1026.1 C1389.3,1027.3,1387.3,1027.6,1385.5,1027.6 H1376.5 Z " stroke-width="0" fill="black" />
<path d="M1262.9,1015.3 L1262.9,1015.6 L1262.9,1015.9 L1262.9,1016.2 L1262.8,1016.5 L1262.8,1016.9 L1262.8,1017.2 L1262.7,1017.5 L1262.7,1017.8 L1262.6,1018.1 L1262.6,1018.4 L1262.5,1018.7 L1262.4,1019 L1262.3,1019.3 L1262.2,1019.6 L1262.1,1019.9 L1262,1020.2 C1261.4,1021.8,1260.6,1023.1,1259.5,1024.3 C1258.4,1025.5,1257.1,1026.4,1255.6,1027.1 C1254.1,1027.8,1252.4,1028.1,1250.7,1028.1 C1249,1028.1,1247.4,1027.8,1245.8,1027.1 C1244.4,1026.5,1243.1,1025.6,1242,1024.4 C1240.9,1023.2,1240.1,1021.9,1239.6,1020.3 C1238.9,1018.8,1238.7,1017.1,1238.7,1015.4 C1238.7,1013.7,1238.9,1012,1239.6,1010.4 C1240.1,1008.9,1241,1007.5,1242.1,1006.3 C1243.2,1005.1,1244.5,1004.2,1245.9,1003.6 C1247.5,1002.9,1249.1,1002.5,1250.8,1002.5 C1252.5,1002.5,1254.2,1002.8,1255.7,1003.5 C1257.2,1004.2,1258.4,1005.1,1259.5,1006.2 C1260.6,1007.4,1261.4,1008.8,1262,1010.3 C1262.6,1011.9,1262.9,1013.6,1262.9,1015.3 Z " stroke-width="0" fill="black" />
<polygon points="1811.3,1027.6 1811.3,1019.4 1830.5,1019.4 1830.5,1011.7 1811.3,1011.7 1811.3,1003.1 1833.2,1003.1 1833.2,995.36 1802.9,995.36 1802.9,1035.3 1832.9,1035.3 1832.9,1027.6 1811.3,1027.6 " stroke-width="0" fill="black" />
<polygon points="1762.1,1010.4 1762.1,1035.3 1770.4,1035.3 1770.4,995.36 1763.6,995.36 1743.8,1021 1743.8,995.36 1735.4,995.36 1735.4,1035.3 1742.9,1035.3 1762.1,1010.4 " stroke-width="0" fill="black" />
<polygon points="1694.2,1035.3 1702.5,1035.3 1702.5,995.36 1694.2,995.36 1694.2,1035.3 " stroke-width="0" fill="black" />
<polygon points="1643.9,1003.1 1664,1003.1 1664,995.36 1635.6,995.36 1635.6,1035.3 1643.9,1035.3 1643.9,1003.1 " stroke-width="0" fill="black" />
<path d="M1596,1004.9 V1010.9 H1586.2 V1018.4 H1604.2 V1001.1 L1603.9,1000.9 C1602.9,1000,1601.8,999.21,1600.6,998.5 C1599.4,997.73,1598.1,997.07,1596.8,996.52 C1595.4,995.93,1593.9,995.5,1592.4,995.19 C1590.7,994.86,1589.1,994.71,1587.4,994.71 C1584.5,994.71,1581.6,995.17,1578.9,996.27 C1576.5,997.28,1574.2,998.71,1572.4,1000.6 C1570.6,1002.5,1569.2,1004.7,1568.2,1007.2 C1567.2,1009.8,1566.7,1012.5,1566.7,1015.3 C1566.7,1018,1567.2,1020.7,1568.2,1023.2 C1569.2,1025.7,1570.6,1027.9,1572.5,1029.8 C1574.3,1031.7,1576.5,1033.2,1579,1034.3 C1581.6,1035.4,1584.4,1035.9,1587.3,1035.9 C1588.8,1035.9,1590.4,1035.8,1592,1035.6 C1593.3,1035.3,1594.7,1035,1595.9,1034.5 C1597.1,1034.1,1598.3,1033.5,1599.4,1032.8 C1600.5,1032.2,1601.5,1031.4,1602.5,1030.6 L1603.1,1030 L1597.8,1023.7 L1597.2,1024.2 C1596.5,1024.8,1595.8,1025.3,1595,1025.8 C1594.3,1026.3,1593.5,1026.7,1592.8,1027 C1591.9,1027.4,1591,1027.6,1590.1,1027.8 C1589.1,1028,1588.1,1028.1,1587,1028.1 C1585.4,1028.1,1583.9,1027.8,1582.5,1027.1 C1581.1,1026.4,1579.8,1025.5,1578.8,1024.4 C1577.7,1023.2,1576.9,1021.8,1576.3,1020.3 C1575.7,1018.7,1575.4,1017,1575.4,1015.3 C1575.4,1013.6,1575.7,1011.8,1576.3,1010.2 C1576.9,1008.6,1577.7,1007.3,1578.8,1006.1 C1579.9,1004.9,1581.2,1004,1582.6,1003.4 C1584.2,1002.7,1585.9,1002.4,1587.6,1002.4 C1589.2,1002.4,1590.9,1002.7,1592.4,1003.2 C1593.7,1003.6,1594.9,1004.2,1596,1004.9 Z " stroke-width="0" fill="black" />
<polygon points="1529.2,1004.6 1512.2,1004.6 1508.2,995.36 1499.5,995.36 1517.1,1035.6 1524.4,1035.6 1541.9,995.36 1533,995.36 1529.2,1004.6 " stroke-width="0" fill="black" />
<polygon points="1466.2,1027.4 1466.2,995.36 1457.8,995.36 1457.8,1027.4 1445.7,1027.4 1445.7,1035.3 1478.4,1035.3 1478.4,1027.4 1466.2,1027.4 " stroke-width="0" fill="black" />
<path d="M1383.7,1008.7 H1376.5 V995.36 H1368.2 V1035.3 H1386 C1388.1,1035.3,1390.2,1035,1392.2,1034.4 C1393.9,1033.8,1395.6,1033,1397,1031.8 C1398.3,1030.7,1399.3,1029.3,1400,1027.7 C1400.8,1026,1401.1,1024.2,1401.1,1022.3 C1401.1,1020.8,1400.9,1019.2,1400.3,1017.8 C1399.9,1016.4,1399.2,1015.2,1398.3,1014.2 C1397.4,1013.1,1396.4,1012.2,1395.2,1011.5 C1394.3,1011,1393.4,1010.6,1392.5,1010.2 L1403.1,995.36 H1393.1 L1383.7,1008.7 Z " stroke-width="0" fill="black" />
<path d="M1336.2,1035.3 V1012.8 C1336.2,1010.1,1335.9,1007.5,1335,1005 C1334.2,1002.9,1333.1,1000.9,1331.5,999.3 C1330,997.73,1328.1,996.61,1326,995.88 C1323.8,995.08,1321.3,994.76,1318.9,994.76 C1316.6,994.76,1314.2,995.08,1311.9,995.88 C1309.9,996.61,1308.1,997.72,1306.5,999.27 C1304.9,1000.8,1303.8,1002.8,1303,1004.8 C1302.2,1007.3,1301.8,1009.9,1301.8,1012.4 V1035.3 H1310.2 V1012.7 C1310.2,1010,1310.7,1007.1,1312.5,1005.1 C1314.3,1003.3,1316.6,1002.6,1319.1,1002.6 C1321.5,1002.6,1323.8,1003.2,1325.6,1005 C1327.4,1007,1327.9,1009.8,1327.9,1012.4 V1035.3 H1336.2 Z " stroke-width="0" fill="black" />
<path d="M1271.6,1015.4 L1271.6,1014.9 L1271.6,1014.4 L1271.6,1013.8 L1271.5,1013.3 L1271.5,1012.8 L1271.4,1012.3 L1271.3,1011.8 L1271.2,1011.3 L1271.1,1010.8 L1271,1010.3 L1270.9,1009.8 L1270.8,1009.3 L1270.6,1008.9 L1270.4,1008.4 L1270.3,1007.9 L1270.1,1007.4 C1269.1,1004.9,1267.6,1002.7,1265.7,1000.8 C1263.8,998.91,1261.6,997.43,1259.1,996.36 C1256.5,995.21,1253.6,994.71,1250.7,994.71 C1247.8,994.71,1245,995.2,1242.3,996.33 C1239.8,997.38,1237.6,998.84,1235.8,1000.8 C1233.9,1002.6,1232.5,1004.8,1231.5,1007.3 C1230.4,1009.8,1229.9,1012.5,1229.9,1015.3 C1229.9,1018,1230.4,1020.7,1231.5,1023.2 C1232.5,1025.7,1233.9,1027.9,1235.8,1029.8 C1237.7,1031.7,1239.9,1033.2,1242.4,1034.3 C1245.1,1035.4,1247.9,1035.9,1250.8,1035.9 C1253.7,1035.9,1256.6,1035.4,1259.2,1034.3 C1261.7,1033.3,1263.9,1031.8,1265.8,1029.9 C1267.7,1028,1269.1,1025.8,1270.1,1023.3 C1271.1,1020.8,1271.6,1018.1,1271.6,1015.4 Z " stroke-width="0" fill="black" />
<polygon points="1191.1,1011.2 1191.1,995.36 1182.7,995.36 1182.7,1011 1166.8,1035.3 1176.7,1035.3 1187,1019.1 1197.3,1035.3 1207.1,1035.3 1191.1,1011.2 " stroke-width="0" fill="black" />
</g>
</svg>
