<?xml version="1.0" standalone="no"?>
<!DOCTYPE svg PUBLIC "-//W3C//DTD SVG 20010904//EN"
 "http://www.w3.org/TR/2001/REC-SVG-20010904/DTD/svg10.dtd">
<svg version="1.0" xmlns="http://www.w3.org/2000/svg"
 viewBox="280 0 320 620"
 preserveAspectRatio="xMidYMid meet">
<metadata>
Created by potrace 1.16, written by Peter Selinger 2001-2019
</metadata>
<g transform="translate(-200.593593,713.536678) scale(0.100000,-0.100000)"
fill="currentColor" stroke="none">
<path d="M5425 7133 c-207 -13 -409 -55 -575 -118 -100 -38 -210 -92 -210
-103 0 -4 44 -22 98 -40 272 -92 523 -265 715 -492 l47 -55 47 55 c192 227
443 400 715 492 54 18 98 36 98 40 0 11 -110 65 -210 103 -211 80 -523 131
-725 118z"/>
<path d="M4106 6747 c-32 -32 -34 -74 -4 -112 21 -27 23 -27 94 -21 40 4 75 3
77 -1 3 -4 -16 -51 -42 -104 -61 -124 -83 -216 -89 -361 -5 -134 12 -237 59
-359 l29 -76 -20 -79 c-40 -160 -53 -282 -53 -484 0 -343 58 -596 208 -908
104 -215 207 -363 374 -534 l94 -98 -13 -57 c-17 -78 -66 -215 -102 -286 -23
-47 -27 -62 -17 -73 6 -8 86 -67 178 -132 91 -64 265 -188 386 -274 121 -87
227 -157 235 -157 8 0 114 70 235 157 121 86 295 210 386 274 92 65 172 124
178 132 10 11 6 26 -17 73 -36 71 -85 208 -102 286 l-13 57 94 98 c167 171
270 319 374 534 150 312 208 565 208 908 0 202 -13 324 -53 484 l-20 79 29 76
c47 122 64 225 59 359 -6 145 -28 237 -89 361 -26 53 -45 100 -42 104 2 4 37
5 77 1 71 -6 73 -6 94 21 30 38 28 80 -4 112 l-26 26 -151 -6 c-84 -3 -186
-13 -227 -22 -391 -85 -714 -314 -917 -653 -76 -126 -71 -120 -83 -102 -6 8
-34 54 -63 102 -203 339 -526 568 -917 653 -41 9 -143 19 -227 22 l-151 6 -26
-26z m442 -168 c74 -18 75 -22 26 -95 -102 -152 -113 -348 -29 -514 37 -73
132 -171 204 -209 175 -93 402 -75 547 44 23 19 47 35 52 35 5 0 39 -78 75
-172 36 -95 71 -173 77 -173 6 0 41 78 77 173 36 94 70 172 74 172 5 0 30 -16
56 -37 152 -116 362 -135 535 -47 72 36 169 133 208 206 44 81 60 147 60 244
0 105 -27 192 -84 278 -49 73 -48 76 28 95 56 14 56 14 138 -104 196 -281 136
-682 -134 -904 -82 -66 -177 -112 -313 -151 -326 -92 -407 -127 -553 -237 -46
-35 -87 -63 -92 -63 -5 0 -46 28 -92 63 -146 110 -227 144 -553 237 -198 56
-325 136 -421 264 -200 266 -189 603 30 868 17 21 32 38 34 38 2 0 24 -5 50
-11z m314 -125 c99 -56 108 -68 59 -77 -38 -8 -100 -63 -117 -104 -36 -86 5
-196 91 -240 38 -20 122 -20 160 0 60 31 105 96 105 153 0 13 4 24 8 24 5 0
32 -30 61 -66 62 -77 62 -91 -2 -156 -63 -65 -125 -92 -222 -96 -109 -5 -177
21 -250 93 -93 93 -122 233 -74 361 18 48 92 144 111 144 3 0 35 -16 70 -36z
m1394 -8 c55 -58 84 -135 84 -226 0 -98 -28 -168 -95 -235 -73 -72 -141 -98
-250 -93 -96 4 -158 30 -222 94 -64 65 -64 81 -2 158 29 36 56 66 61 66 4 0 8
-11 8 -24 0 -57 45 -122 105 -153 38 -20 122 -20 160 0 86 44 127 154 91 240
-17 41 -79 96 -117 104 -16 3 -29 9 -29 14 0 11 133 96 154 98 5 1 28 -19 52
-43z m-1808 -1001 c118 -100 238 -155 467 -214 105 -27 217 -61 249 -76 89
-39 185 -105 265 -180 l71 -67 71 67 c80 75 176 141 265 180 32 15 145 49 249
76 229 59 349 114 467 214 43 36 82 65 87 65 20 0 36 -170 36 -390 -1 -205 -3
-236 -28 -351 -59 -278 -182 -550 -344 -762 -68 -89 -225 -249 -318 -324 -105
-85 -234 -164 -374 -231 l-113 -54 -152 76 c-83 42 -193 107 -245 144 -114 81
-289 246 -377 356 -178 221 -309 501 -371 795 -25 115 -27 146 -28 351 0 220
16 390 36 390 5 0 44 -29 87 -65z m838 -2149 c60 -29 133 -62 162 -72 51 -18
53 -18 105 0 91 32 267 124 363 191 51 35 96 60 99 55 3 -5 13 -33 22 -62 8
-29 26 -74 39 -100 13 -26 24 -51 24 -56 0 -5 -135 -102 -300 -216 l-300 -208
-300 208 c-165 114 -300 211 -300 216 0 5 11 30 24 56 13 26 31 71 39 100 9
29 19 57 22 62 3 5 48 -20 99 -55 51 -36 142 -89 202 -119z"/>
<path d="M4820 5071 c0 -4 22 -55 49 -112 140 -297 212 -618 215 -956 0 -101
4 -183 7 -183 8 0 27 116 40 240 32 318 -74 702 -268 972 -35 48 -43 56 -43
39z"/>
<path d="M6138 5033 c-195 -272 -301 -654 -269 -973 13 -124 32 -240 40 -240
3 0 7 82 7 183 3 339 75 659 215 956 27 58 48 109 46 114 -2 6 -19 -12 -39
-40z"/>
<path d="M4804 2987 c-2 -7 -4 -52 -2 -98 l3 -84 345 -242 c190 -134 347 -243
350 -243 3 0 160 109 350 243 l345 242 0 93 c0 55 -4 92 -10 92 -5 0 -160
-104 -342 -230 -183 -127 -337 -230 -343 -230 -9 0 -368 244 -628 427 -46 33
-64 41 -68 30z"/>
<path d="M2279 1866 c-106 -28 -210 -121 -250 -224 -18 -44 -23 -78 -23 -148
0 -86 2 -96 37 -167 42 -86 92 -135 177 -176 49 -23 67 -26 165 -26 104 0 114
2 175 32 36 18 78 46 95 63 l29 31 -51 50 -50 51 -58 -38 c-55 -37 -63 -39
-135 -39 -68 0 -81 3 -117 28 -118 82 -131 269 -26 369 78 75 194 76 290 2
l37 -28 48 55 c26 30 48 60 48 66 0 21 -102 81 -165 98 -70 18 -162 19 -226 1z"/>
<path d="M3297 1870 c-107 -27 -204 -106 -253 -206 -27 -54 -29 -68 -29 -169
0 -96 3 -116 24 -158 37 -75 104 -142 179 -179 63 -31 72 -33 177 -33 104 0
114 2 176 32 80 39 150 111 187 191 23 49 27 70 27 152 0 88 -3 101 -33 162
-41 84 -120 158 -200 189 -64 24 -193 34 -255 19z m164 -151 c93 -28 153 -114
154 -219 0 -83 -31 -149 -93 -194 -40 -28 -50 -31 -121 -31 -68 0 -83 3 -119
28 -23 15 -54 46 -69 69 -25 37 -28 50 -28 127 0 76 3 91 27 127 57 87 150
122 249 93z"/>
<path d="M4165 1857 c-3 -6 -4 -172 -3 -367 l3 -355 75 0 75 0 3 223 c1 122 6
222 11 222 5 0 50 -63 100 -140 51 -77 97 -138 102 -134 6 3 49 65 96 137 47
73 87 134 89 136 14 15 17 -33 16 -217 -2 -114 1 -213 6 -220 6 -9 30 -12 83
-10 l74 3 0 365 0 365 -86 3 -86 3 -94 -151 c-51 -83 -98 -149 -103 -147 -6 2
-47 63 -92 136 -46 73 -88 139 -95 147 -15 19 -167 20 -174 1z"/>
<path d="M5305 1858 c-3 -7 -4 -173 -3 -368 l3 -355 75 0 75 0 5 105 5 105
110 6 c166 9 244 53 290 162 23 56 19 152 -9 212 -28 61 -56 87 -121 117 -45
20 -68 23 -237 26 -151 3 -189 1 -193 -10z m355 -156 c26 -12 39 -28 50 -60
14 -40 13 -45 -5 -80 -28 -52 -55 -63 -155 -60 l-85 3 -3 94 c-1 52 -1 100 2
108 8 21 152 17 196 -5z"/>
<path d="M6470 1848 c-123 -280 -297 -705 -291 -711 4 -4 41 -7 81 -5 l73 3
29 69 c15 38 33 75 39 82 9 11 46 14 155 14 163 0 148 8 193 -100 l27 -65 73
-3 c41 -2 78 1 83 6 7 7 -252 637 -293 714 -8 15 -22 18 -85 18 -68 0 -75 -2
-84 -22z m134 -291 c20 -49 36 -95 36 -103 0 -11 -19 -14 -83 -14 -46 0 -86 3
-90 6 -4 5 62 178 80 207 8 14 18 -2 57 -96z"/>
<path d="M7295 1857 c-3 -6 -4 -172 -3 -367 l3 -355 75 0 75 0 3 218 c1 119 6
217 11 217 5 0 84 -99 176 -220 l168 -221 66 3 66 3 0 365 0 365 -75 0 -75 0
-3 -212 c-1 -117 -6 -213 -11 -213 -4 0 -82 97 -171 215 l-164 215 -68 0 c-46
0 -70 -4 -73 -13z"/>
<path d="M8278 1864 c-3 -3 56 -101 131 -217 l136 -212 5 -150 5 -150 75 0 75
0 5 145 5 145 137 214 c76 118 135 218 132 222 -3 5 -43 9 -88 9 l-84 0 -83
-140 c-46 -77 -88 -140 -94 -140 -6 0 -48 63 -94 140 l-83 140 -88 0 c-47 0
-89 -3 -92 -6z"/>
<path d="M3377 924 c-3 -3 15 -38 41 -76 36 -54 48 -83 52 -122 4 -43 8 -51
25 -51 17 0 21 8 25 50 4 38 17 67 52 119 26 38 45 73 42 78 -13 21 -46 5 -76
-37 -18 -25 -37 -45 -42 -45 -6 0 -23 20 -38 45 -20 33 -34 45 -51 45 -13 0
-26 -3 -30 -6z"/>
<path d="M3834 911 c-32 -20 -64 -74 -64 -110 0 -35 26 -86 55 -109 21 -17 41
-22 82 -22 49 0 59 4 88 33 41 41 53 93 33 145 -28 73 -125 105 -194 63z m121
-56 c51 -50 18 -135 -51 -135 -39 0 -74 38 -74 82 0 36 40 78 75 78 14 0 37
-11 50 -25z"/>
<path d="M4237 924 c-4 -4 -7 -45 -7 -91 0 -127 25 -163 115 -163 38 0 52 5
76 30 29 29 30 30 27 127 -3 90 -5 98 -23 98 -18 0 -20 -8 -25 -86 -3 -51 -11
-93 -19 -103 -16 -19 -64 -21 -79 -3 -6 7 -12 53 -14 103 -3 81 -5 89 -23 92
-12 2 -24 0 -28 -4z"/>
<path d="M4664 917 c-2 -7 -3 -65 -2 -128 3 -106 4 -114 23 -114 15 0 21 8 25
35 8 53 41 53 76 1 21 -32 33 -41 55 -41 35 0 36 5 3 53 l-25 38 25 30 c14 17
26 37 26 44 0 34 -22 67 -55 80 -44 19 -144 20 -151 2z"/>
<path d="M5154 915 c-10 -26 4 -44 38 -47 l33 -3 5 -95 c5 -87 7 -95 25 -95
18 0 20 8 25 95 l5 95 35 5 c29 4 35 9 35 30 0 25 -1 25 -98 28 -80 2 -98 0
-103 -13z"/>
<path d="M5589 883 c-96 -219 -94 -213 -58 -213 10 0 26 14 34 31 15 28 19 30
68 27 45 -3 53 -6 65 -30 9 -19 21 -28 38 -28 13 0 24 5 24 11 0 14 -89 220
-102 237 -22 26 -48 13 -69 -35z"/>
<path d="M6004 920 c-11 -4 -33 -22 -47 -40 -31 -37 -37 -103 -12 -150 25 -49
92 -75 152 -58 61 16 74 34 71 92 l-3 51 -55 0 c-48 0 -55 -3 -55 -20 0 -12 9
-21 25 -25 39 -9 34 -44 -8 -48 -88 -9 -122 95 -47 144 22 14 32 15 66 5 41
-12 69 -4 69 21 0 27 -110 47 -156 28z"/>
<path d="M6375 918 c-3 -8 -4 -66 -3 -129 l3 -114 85 0 c78 0 85 2 85 20 0 17
-8 21 -60 25 l-60 5 -5 100 c-4 85 -8 100 -23 103 -9 2 -19 -3 -22 -10z"/>
<path d="M6745 918 c-3 -8 -4 -66 -3 -129 l3 -114 25 0 25 0 0 125 c0 122 -1
125 -23 128 -12 2 -24 -3 -27 -10z"/>
<path d="M7014 917 c-2 -7 -3 -65 -2 -128 3 -106 4 -114 23 -114 18 0 20 8 23
68 2 37 7 67 11 67 5 0 33 -32 62 -70 39 -52 59 -70 74 -68 19 3 20 10 20 128
0 118 -1 125 -20 125 -18 0 -20 -8 -23 -67 -2 -38 -7 -68 -11 -68 -5 0 -34 32
-65 70 -55 68 -81 84 -92 57z"/>
<path d="M7444 917 c-2 -7 -3 -65 -2 -128 l3 -114 90 0 c83 0 90 1 90 20 0 17
-8 21 -65 25 -57 4 -65 8 -65 25 0 17 8 21 60 25 56 5 60 7 60 30 0 23 -4 25
-60 30 -52 4 -60 8 -60 25 0 17 8 21 65 25 57 4 65 8 65 25 0 18 -8 20 -88 23
-66 2 -89 0 -93 -11z"/>
</g>
</svg>
