<?xml version="1.0" standalone="no"?>
<!DOCTYPE svg PUBLIC "-//W3C//DTD SVG 20010904//EN"
 "http://www.w3.org/TR/2001/REC-SVG-20010904/DTD/svg10.dtd">
<svg version="1.0" xmlns="http://www.w3.org/2000/svg"
 width="699.262706pt" height="647.164143pt" viewBox="0 0 699.262706 647.164143"
 preserveAspectRatio="xMidYMid meet">
<metadata>
Created by potrace 1.16, written by Peter Selinger 2001-2019
</metadata>
<g transform="translate(-610.190101,913.593150) scale(0.100000,-0.100000)"
fill="currentColor" stroke="none">
<path d="M9505 9134 c-171 -12 -329 -42 -486 -94 -111 -36 -281 -111 -286
-125 -1 -5 43 -25 100 -43 284 -93 555 -284 745 -526 l22 -29 23 29 c189 242
460 433 744 526 57 18 101 38 100 43 -9 27 -302 138 -461 174 -145 34 -372 54
-501 45z"/>
<path d="M8201 8744 c-12 -15 -21 -39 -21 -54 0 -15 9 -39 21 -54 19 -24 26
-26 99 -26 l78 0 -44 -89 c-25 -49 -56 -133 -70 -188 -23 -88 -25 -112 -21
-238 5 -145 16 -206 62 -319 l24 -60 -19 -76 c-41 -163 -54 -288 -54 -495 0
-162 5 -225 23 -328 78 -443 272 -824 577 -1132 l77 -77 -13 -57 c-16 -72 -53
-175 -98 -274 -20 -45 -31 -81 -26 -86 5 -4 188 -135 407 -290 l397 -281 398
281 c218 155 401 286 406 290 5 5 -6 41 -26 86 -45 99 -82 202 -98 274 l-13
57 77 77 c305 308 499 689 577 1132 18 103 23 166 23 328 0 207 -13 332 -54
495 l-19 76 24 60 c46 113 57 174 62 319 4 126 2 150 -21 238 -14 55 -45 139
-70 188 l-44 89 78 0 c73 0 80 2 99 26 12 15 21 39 21 54 0 15 -9 39 -21 54
-20 26 -22 26 -143 26 -365 0 -708 -143 -971 -405 -99 -98 -206 -243 -256
-347 -13 -27 -26 -48 -29 -48 -3 0 -16 21 -29 48 -50 104 -157 249 -256 347
-263 262 -606 405 -971 405 -121 0 -123 0 -143 -26z m477 -174 c23 -6 42 -13
42 -16 0 -4 -11 -20 -26 -36 -65 -78 -107 -205 -106 -323 1 -180 101 -349 258
-432 183 -97 415 -78 557 47 19 16 39 30 44 30 5 0 41 -83 79 -185 38 -102 71
-185 74 -185 3 0 36 83 74 185 38 102 74 185 79 185 5 0 25 -14 44 -30 75 -66
200 -110 313 -110 276 0 501 222 502 495 1 119 -41 245 -108 324 -14 18 -25
33 -23 35 2 2 29 11 59 20 l55 17 48 -52 c53 -57 128 -202 148 -289 19 -79 16
-241 -5 -320 -52 -194 -183 -354 -361 -443 -71 -36 -117 -51 -325 -107 -142
-38 -306 -117 -415 -199 -44 -34 -82 -61 -85 -61 -3 0 -41 27 -85 61 -109 82
-273 161 -415 199 -208 56 -254 71 -325 107 -178 89 -309 249 -361 443 -21 79
-24 241 -5 320 31 133 166 348 210 336 9 -3 35 -10 59 -16z m346 -153 l39 -24
-39 -13 c-58 -19 -90 -45 -113 -93 -24 -50 -27 -113 -7 -160 29 -71 129 -126
199 -112 85 18 157 94 157 163 0 18 2 32 5 32 7 0 63 -64 93 -106 15 -20 22
-39 18 -51 -10 -31 -87 -103 -141 -131 -44 -24 -61 -27 -145 -27 -111 0 -167
22 -236 90 -68 68 -89 124 -89 235 0 109 20 163 85 232 l38 39 49 -25 c26 -14
66 -36 87 -49z m1351 5 c51 -69 68 -129 63 -220 -6 -127 -71 -227 -183 -282
-42 -21 -64 -25 -145 -25 -84 0 -101 3 -145 27 -54 28 -131 100 -141 131 -4
12 3 31 18 51 30 42 86 106 93 106 3 0 5 -14 5 -31 0 -70 73 -146 157 -164 73
-15 179 48 204 122 17 51 6 126 -24 171 -23 35 -43 49 -115 78 -22 9 -18 13
59 56 95 54 100 53 154 -20z m-1732 -1049 c92 -60 185 -97 336 -133 284 -69
396 -123 550 -267 l71 -65 71 65 c154 144 266 198 550 267 208 50 335 113 461
229 38 35 59 48 62 39 34 -104 46 -453 22 -618 -81 -554 -369 -1008 -831
-1313 -110 -72 -300 -167 -335 -167 -14 0 -75 24 -135 54 -496 244 -856 686
-989 1214 -46 179 -59 308 -53 507 5 155 17 273 33 323 3 9 24 -4 62 -39 31
-29 88 -72 125 -96z m515 -1942 c102 -72 216 -136 335 -186 l107 -44 108 45
c120 50 229 111 334 185 38 28 71 49 73 47 1 -2 10 -30 20 -63 9 -33 29 -84
45 -112 l28 -53 -304 -210 -304 -210 -304 210 -304 210 29 53 c15 28 36 80 45
114 9 35 19 63 20 63 2 0 35 -22 72 -49z"/>
<path d="M10277 7088 c-138 -171 -250 -425 -293 -663 -23 -131 -24 -365 -1
-495 28 -158 38 -171 33 -43 -15 384 69 774 240 1120 33 68 59 123 58 123 -2
0 -18 -19 -37 -42z"/>
<path d="M8891 7115 c3 -5 30 -62 61 -125 166 -342 247 -724 232 -1103 -5
-128 5 -115 33 43 22 130 22 364 -1 495 -21 121 -81 306 -132 406 -42 85 -154
258 -180 280 -9 8 -15 10 -13 4z"/>
<path d="M8900 4903 l1 -98 342 -240 c188 -131 349 -239 357 -239 8 0 169 108
357 239 l342 240 1 98 c0 53 -3 97 -6 97 -3 0 -157 -104 -342 -232 -185 -128
-343 -232 -352 -232 -9 0 -167 104 -352 232 -185 128 -339 232 -342 232 -3 0
-6 -44 -6 -97z"/>
<path d="M6375 3867 c-179 -60 -287 -217 -272 -397 14 -161 99 -276 246 -331
47 -17 72 -20 156 -17 85 3 109 8 157 32 31 16 71 44 89 62 l33 34 -51 52 -52
52 -43 -30 c-80 -57 -160 -69 -233 -35 -183 85 -165 379 27 432 58 16 135 -1
196 -42 l47 -32 52 59 52 58 -22 24 c-12 13 -51 37 -87 54 -56 27 -78 32 -160
35 -61 2 -109 -2 -135 -10z"/>
<path d="M7375 3863 c-151 -54 -238 -153 -265 -300 -30 -169 59 -337 218 -411
51 -24 69 -27 167 -27 103 0 114 2 177 32 127 60 207 177 216 318 10 162 -67
294 -216 367 -56 28 -78 33 -156 35 -68 3 -103 -1 -141 -14z m228 -165 c163
-90 144 -348 -31 -415 -141 -53 -292 59 -292 217 0 66 37 149 81 182 69 52
165 58 242 16z"/>
<path d="M8260 3500 l0 -370 80 0 80 0 2 232 3 233 97 -148 c54 -81 101 -147
105 -147 5 0 52 67 105 148 l98 147 0 -232 0 -233 85 0 85 0 0 370 0 370 -89
0 -90 0 -93 -150 c-51 -82 -96 -150 -100 -150 -4 0 -49 68 -100 150 l-93 150
-87 0 -88 0 0 -370z"/>
<path d="M9400 3501 l0 -371 80 0 80 0 0 110 0 110 93 0 c158 0 256 46 304
143 28 56 33 164 10 219 -22 51 -71 103 -125 129 -43 22 -62 24 -244 27 l-198
4 0 -371z m356 204 c74 -31 81 -143 11 -185 -25 -16 -50 -20 -119 -20 l-88 0
0 110 0 110 80 0 c48 0 95 -6 116 -15z"/>
<path d="M10576 3862 c-8 -13 -298 -696 -303 -714 -5 -16 3 -18 78 -18 l84 0
30 78 31 77 158 0 159 0 30 -77 30 -78 88 0 88 0 -35 83 c-19 45 -90 211 -157
369 l-122 288 -77 0 c-42 0 -79 -3 -82 -8z m134 -328 l39 -94 -94 0 c-107 0
-100 -12 -57 95 52 128 53 130 64 111 6 -10 27 -61 48 -112z"/>
<path d="M11385 3857 c-3 -6 -4 -172 -3 -367 l3 -355 82 -3 83 -3 2 228 3 227
171 -224 171 -225 71 -3 72 -3 0 371 0 370 -80 0 -80 0 -2 -222 -3 -222 -169
222 -169 222 -74 0 c-50 0 -75 -4 -78 -13z"/>
<path d="M12370 3866 c0 -3 63 -104 140 -225 l140 -220 0 -146 0 -146 83 3 82
3 3 148 3 147 132 208 c73 114 136 213 141 220 5 9 -14 12 -87 12 l-94 0 -88
-145 c-49 -80 -91 -142 -95 -138 -4 4 -44 70 -89 146 l-82 137 -95 0 c-52 0
-94 -2 -94 -4z"/>
<path d="M7470 2924 c0 -3 23 -40 50 -83 42 -65 50 -86 50 -125 0 -46 1 -47
28 -44 25 3 27 6 30 57 3 43 11 65 43 112 56 83 57 89 21 89 -26 0 -35 -8 -61
-50 -17 -27 -32 -50 -34 -50 -2 0 -18 23 -35 50 -26 42 -36 50 -62 50 -16 0
-30 -2 -30 -6z"/>
<path d="M7933 2910 c-98 -59 -74 -210 37 -240 115 -31 212 96 150 197 -37 62
-124 82 -187 43z m130 -61 c40 -49 4 -129 -58 -129 -68 0 -99 87 -49 137 20
20 31 24 57 19 18 -3 40 -16 50 -27z"/>
<path d="M8332 2825 c3 -103 4 -108 31 -131 43 -37 118 -34 158 5 28 29 29 32
29 130 l0 101 -25 0 c-25 0 -25 -1 -25 -83 0 -96 -14 -127 -59 -127 -16 0 -33
6 -39 13 -6 7 -12 53 -14 103 l-3 89 -28 3 -29 4 4 -107z"/>
<path d="M8757 2923 c-4 -3 -7 -62 -7 -130 l0 -123 30 0 c28 0 30 2 30 40 0
35 3 40 24 40 16 0 31 -12 50 -40 22 -34 31 -40 62 -40 l35 0 -31 45 -31 44
20 20 c44 44 35 111 -19 138 -26 13 -152 18 -163 6z m148 -83 c0 -23 -4 -25
-47 -28 -48 -3 -48 -3 -48 28 0 31 0 31 48 28 43 -3 47 -5 47 -28z"/>
<path d="M9250 2900 c0 -28 2 -30 40 -30 l40 0 0 -101 0 -100 28 3 27 3 3 98
3 97 34 0 c32 0 35 2 35 30 l0 30 -105 0 -105 0 0 -30z"/>
<path d="M9679 2863 c-42 -92 -79 -181 -79 -188 0 -3 13 -5 29 -5 23 0 31 6
40 30 9 28 13 30 60 30 46 0 52 -3 66 -30 12 -23 22 -30 45 -30 35 0 39 -16
-40 163 -37 84 -46 97 -67 97 -20 0 -29 -11 -54 -67z m81 -75 c0 -5 -14 -8
-30 -8 l-31 0 17 32 16 32 14 -25 c7 -13 13 -27 14 -31z"/>
<path d="M10094 2914 c-68 -33 -89 -135 -40 -199 43 -56 118 -67 189 -26 25
14 27 21 27 73 l0 58 -60 0 c-57 0 -60 -1 -60 -25 0 -21 5 -25 31 -25 26 0 30
-3 27 -22 -6 -46 -92 -35 -112 13 -17 40 -9 75 22 99 29 23 48 25 82 5 22 -12
27 -11 43 2 24 22 22 30 -13 48 -37 19 -96 19 -136 -1z"/>
<path d="M10470 2800 l0 -130 90 0 c89 0 90 0 90 25 0 24 -2 25 -65 25 l-65 0
0 105 0 105 -25 0 -25 0 0 -130z"/>
<path d="M10840 2800 l0 -130 30 0 30 0 0 130 0 130 -30 0 -30 0 0 -130z"/>
<path d="M11107 2923 c-4 -3 -7 -62 -7 -130 l0 -123 30 0 29 0 3 78 3 77 59
-77 c44 -59 64 -78 82 -78 l24 0 0 130 0 130 -25 0 c-23 0 -24 -3 -27 -77 l-3
-78 -60 77 c-57 73 -87 93 -108 71z"/>
<path d="M11540 2800 l0 -130 95 0 c95 0 95 0 95 25 0 24 -2 25 -65 25 -62 0
-65 1 -65 25 0 22 4 24 58 27 53 3 57 5 57 28 0 23 -4 25 -60 30 -45 4 -60 9
-60 20 0 12 16 16 68 18 67 3 67 3 67 32 l0 30 -95 0 -95 0 0 -130z"/>
</g>
</svg>
