<?xml version="1.0" standalone="no"?>
<!DOCTYPE svg PUBLIC "-//W3C//DTD SVG 20010904//EN"
 "http://www.w3.org/TR/2001/REC-SVG-20010904/DTD/svg10.dtd">
<svg version="1.0" xmlns="http://www.w3.org/2000/svg"
 width="599.868877pt" height="646.852044pt" viewBox="0 0 599.868877 646.852044"
 preserveAspectRatio="xMidYMid meet">
<metadata>
Created by potrace 1.16, written by Peter Selinger 2001-2019
</metadata>
<g transform="translate(0.000000,663.535323) scale(0.100000,-0.100000)"
fill="currentColor" stroke="none">
<path d="M2925 6633 c-190 -12 -365 -45 -524 -99 -84 -29 -271 -114 -271 -123
0 -3 48 -21 105 -40 265 -85 525 -263 718 -491 l47 -55 47 55 c193 228 453
406 718 491 57 19 105 37 105 40 0 9 -187 94 -271 123 -204 69 -489 111 -674
99z"/>
<path d="M1605 6245 c-31 -30 -32 -73 -3 -110 21 -27 23 -27 100 -20 43 3 78
4 78 0 0 -3 -22 -52 -49 -108 -64 -132 -82 -205 -88 -353 -6 -140 10 -241 58
-365 l29 -76 -20 -79 c-40 -160 -53 -282 -53 -484 0 -343 58 -596 208 -908
104 -215 207 -363 373 -534 93 -95 94 -97 87 -135 -13 -69 -56 -197 -98 -286
-25 -54 -37 -91 -31 -95 15 -10 312 -221 569 -404 121 -87 227 -157 235 -157
8 0 114 70 235 157 257 183 554 394 569 404 6 4 -6 41 -31 95 -42 89 -85 217
-98 286 -7 38 -6 40 87 135 166 171 269 319 373 534 150 312 208 565 208 908
0 202 -13 324 -53 484 l-20 79 29 76 c48 124 64 225 58 365 -6 148 -24 221
-88 353 -27 56 -49 105 -49 108 0 4 35 3 78 0 77 -7 79 -7 100 20 29 37 28 80
-3 110 -23 23 -31 25 -132 25 -304 0 -604 -102 -846 -287 -142 -108 -298 -293
-378 -447 -19 -36 -36 -66 -39 -66 -3 0 -20 30 -39 66 -229 442 -715 734
-1224 734 -101 0 -109 -2 -132 -25z m478 -176 c20 -5 37 -11 37 -13 0 -2 -20
-33 -45 -70 -103 -154 -115 -349 -30 -516 37 -73 132 -171 204 -209 179 -95
406 -74 554 50 l47 40 18 -43 c10 -24 43 -107 72 -185 30 -79 56 -143 60 -143
4 0 30 64 60 143 29 78 62 161 72 185 l18 44 42 -37 c53 -44 145 -89 216 -104
164 -34 326 13 448 131 104 100 154 217 154 364 0 105 -27 192 -85 280 -25 37
-43 69 -41 71 2 3 30 11 62 19 l57 15 24 -28 c56 -67 109 -153 134 -218 106
-277 25 -587 -203 -774 -82 -66 -177 -112 -313 -151 -326 -92 -407 -127 -553
-237 -46 -35 -87 -63 -92 -63 -5 0 -46 28 -92 63 -146 110 -227 144 -553 237
-198 56 -325 136 -421 264 -201 266 -189 601 30 869 33 40 30 39 119 16z m276
-114 c112 -62 114 -66 59 -79 -37 -9 -98 -63 -114 -103 -36 -86 5 -196 91
-240 38 -20 122 -20 161 0 64 33 95 84 107 176 1 8 30 -20 64 -63 l63 -78 -33
-45 c-62 -87 -155 -133 -268 -133 -97 0 -167 29 -234 95 -93 93 -122 233 -74
361 18 48 92 144 111 144 3 0 34 -16 67 -35z m1397 -9 c82 -86 108 -231 63
-351 -28 -76 -108 -156 -184 -184 -67 -25 -173 -28 -234 -6 -61 21 -127 70
-160 119 l-31 44 63 78 c34 43 63 71 64 63 12 -92 43 -143 107 -176 39 -20
123 -20 161 0 86 44 127 154 91 240 -17 41 -79 96 -117 104 -16 3 -31 9 -34
12 -2 4 22 22 53 41 31 18 66 39 77 46 30 19 35 18 81 -30z m-1756 -1043 c94
-71 209 -119 415 -172 105 -27 217 -61 249 -76 89 -39 185 -105 265 -180 l71
-67 71 67 c80 75 176 141 265 180 32 15 145 49 249 76 258 67 371 122 512 252
23 21 43 34 46 30 20 -34 32 -182 32 -388 -1 -211 -3 -240 -28 -356 -81 -383
-257 -703 -533 -969 -163 -157 -296 -249 -503 -348 l-113 -54 -152 76 c-83 42
-193 107 -245 144 -114 81 -289 246 -377 356 -178 221 -309 501 -371 795 -25
116 -27 145 -28 356 0 206 12 354 32 388 3 4 23 -9 46 -30 23 -21 67 -57 97
-80z m584 -1988 c96 -67 271 -159 364 -191 51 -18 53 -18 105 0 92 32 267 124
364 192 52 36 96 64 98 62 1 -2 10 -30 20 -63 9 -33 29 -84 45 -113 l28 -52
-126 -88 c-70 -49 -207 -144 -304 -211 l-178 -123 -177 123 c-98 67 -235 162
-305 211 l-126 88 28 52 c16 29 37 81 46 115 9 35 19 63 20 63 2 0 46 -29 98
-65z"/>
<path d="M2355 4488 c156 -326 227 -635 228 -1000 1 -108 3 -196 4 -194 8 8
33 158 43 258 27 279 -44 605 -187 853 -43 74 -140 215 -148 215 -2 0 25 -60
60 -132z"/>
<path d="M3653 4553 c-250 -343 -343 -775 -257 -1187 8 -39 16 -71 17 -72 1
-2 3 86 4 194 1 365 72 674 228 1000 35 72 62 132 60 132 -2 0 -25 -30 -52
-67z"/>
<path d="M2301 2403 l0 -98 344 -240 c189 -132 349 -240 355 -240 6 0 166 108
355 240 l344 240 0 98 c1 53 -1 97 -4 97 -3 0 -158 -106 -345 -235 -187 -129
-344 -235 -350 -235 -6 0 -163 106 -350 235 -187 129 -342 235 -345 235 -3 0
-5 -44 -4 -97z"/>
<path d="M797 1370 c-107 -27 -204 -106 -253 -206 -27 -54 -29 -68 -29 -169 0
-96 3 -116 24 -158 37 -75 104 -142 179 -179 63 -31 72 -33 177 -33 104 0 114
2 176 32 80 39 150 111 187 191 23 49 27 70 27 152 0 88 -3 101 -33 162 -41
84 -120 158 -200 189 -64 24 -193 34 -255 19z m164 -151 c93 -28 153 -114 154
-219 0 -83 -31 -149 -93 -194 -40 -28 -50 -31 -121 -31 -68 0 -83 3 -119 28
-23 15 -54 46 -69 69 -25 37 -28 50 -28 127 0 76 3 91 27 127 57 87 150 122
249 93z"/>
<path d="M0 1286 c0 -83 0 -84 34 -110 19 -14 37 -26 39 -26 3 0 28 27 57 59
l51 60 -48 35 c-26 20 -67 42 -90 50 l-43 15 0 -83z"/>
<path d="M1660 1000 l0 -370 80 0 80 0 2 233 3 232 98 -147 c54 -82 101 -148
105 -148 4 0 49 65 100 145 52 80 97 145 100 145 4 0 7 -102 7 -227 l0 -228
83 -3 82 -3 -2 368 -3 368 -86 3 -87 3 -85 -138 c-47 -76 -92 -146 -99 -156
-12 -15 -23 0 -108 138 l-95 155 -87 0 -88 0 0 -370z"/>
<path d="M2800 1001 l0 -371 80 0 80 0 0 109 0 108 113 5 c96 4 120 8 170 32
91 44 137 120 137 228 0 45 -7 77 -24 113 -28 61 -56 87 -121 117 -45 21 -68
23 -242 26 l-193 4 0 -371z m360 201 c26 -12 39 -28 50 -60 14 -40 13 -45 -5
-80 -28 -51 -56 -62 -157 -62 l-88 0 0 110 0 110 83 0 c58 0 92 -5 117 -18z"/>
<path d="M3977 1363 c-10 -17 -307 -721 -307 -727 0 -4 37 -6 82 -4 l81 3 29
69 c15 38 33 75 39 82 9 11 46 14 155 14 163 0 148 8 193 -100 l27 -65 82 -3
c45 -2 82 1 82 6 0 9 -283 680 -301 714 -8 15 -22 18 -84 18 -40 0 -76 -3 -78
-7z m126 -308 l46 -110 -91 -3 c-50 -1 -92 -1 -94 1 -3 2 17 54 42 116 26 61
48 110 50 109 1 -2 23 -52 47 -113z"/>
<path d="M4790 1000 l0 -370 80 0 80 0 2 228 3 229 174 -229 173 -228 69 0 69
0 0 370 0 370 -80 0 -80 0 -2 -222 -3 -223 -170 223 -169 222 -73 0 -73 0 0
-370z"/>
<path d="M5772 1362 c2 -4 53 -86 113 -181 l110 -173 3 145 c2 133 1 148 -19
181 l-21 36 -95 0 c-52 0 -93 -4 -91 -8z"/>
<path d="M38 823 l-38 -26 0 -83 0 -84 27 11 c45 17 106 55 132 83 l25 26 -49
50 c-27 28 -52 50 -55 49 -3 0 -22 -12 -42 -26z"/>
<path d="M870 425 c0 -2 23 -39 50 -81 43 -65 50 -84 50 -125 0 -46 2 -49 25
-49 23 0 25 4 25 48 0 40 8 58 50 122 27 41 50 78 50 83 0 4 -12 7 -27 7 -22
0 -34 -10 -56 -45 -16 -25 -32 -47 -37 -50 -5 -3 -22 17 -39 45 -26 42 -36 50
-61 50 -16 0 -30 -2 -30 -5z"/>
<path d="M1334 411 c-40 -25 -68 -83 -61 -128 12 -73 60 -115 132 -115 71 0
120 42 131 114 18 107 -108 187 -202 129z m121 -56 c51 -50 18 -135 -51 -135
-39 0 -74 38 -74 82 0 36 40 78 75 78 14 0 37 -11 50 -25z"/>
<path d="M1730 340 c0 -135 24 -170 115 -170 38 0 52 5 76 29 28 29 29 32 29
130 l0 101 -25 0 c-25 0 -25 -1 -25 -83 0 -96 -14 -127 -59 -127 -16 0 -33 6
-39 13 -6 7 -12 53 -14 103 -3 89 -3 89 -30 92 l-28 3 0 -91z"/>
<path d="M2160 300 l0 -130 25 0 c23 0 25 4 25 40 0 36 3 40 25 40 18 0 32
-11 51 -40 22 -34 32 -40 61 -40 l34 0 -31 45 -31 46 25 30 c29 34 31 45 16
84 -13 35 -65 55 -140 55 l-60 0 0 -130z m134 67 c10 -7 17 -22 14 -33 -2 -15
-13 -20 -51 -22 -46 -3 -47 -2 -47 26 0 16 3 32 7 35 11 12 58 8 77 -6z"/>
<path d="M2652 403 c3 -24 8 -28 41 -31 l37 -3 0 -100 c0 -99 0 -99 25 -99
l25 0 0 100 0 100 40 0 c38 0 40 2 40 30 l0 30 -106 0 -105 0 3 -27z"/>
<path d="M3089 383 c-61 -138 -89 -205 -89 -209 0 -2 13 -4 28 -4 22 0 30 7
39 30 11 28 14 30 66 30 52 0 56 -2 66 -30 8 -24 16 -30 40 -30 l30 0 -36 83
c-19 45 -44 103 -55 130 -17 37 -26 47 -45 47 -19 0 -28 -10 -44 -47z"/>
<path d="M3504 420 c-11 -4 -33 -22 -47 -40 -31 -37 -37 -103 -12 -150 25 -49
92 -75 152 -58 60 16 73 33 73 95 l0 53 -60 0 c-57 0 -60 -1 -60 -25 0 -21 5
-25 31 -25 26 0 30 -3 27 -22 -4 -31 -64 -37 -98 -10 -35 28 -33 87 4 118 31
28 50 30 88 10 24 -13 28 -12 42 3 23 25 20 30 -19 47 -38 15 -88 17 -121 4z"/>
<path d="M3870 300 l0 -130 90 0 c89 0 90 0 90 25 0 24 -2 25 -65 25 l-65 0 0
105 0 105 -25 0 -25 0 0 -130z"/>
<path d="M4240 301 l0 -131 30 0 31 0 -3 128 -3 127 -27 3 -28 3 0 -130z"/>
<path d="M4510 300 l0 -130 25 0 c23 0 24 3 27 78 l3 77 60 -77 c43 -57 66
-78 82 -78 23 0 23 1 23 130 l0 130 -25 0 c-24 0 -25 -2 -25 -75 0 -41 -3 -75
-7 -75 -5 1 -33 34 -63 75 -39 53 -61 74 -77 75 -23 0 -23 -2 -23 -130z"/>
<path d="M4940 300 l0 -130 95 0 c94 0 95 0 95 25 0 23 -3 24 -67 27 -61 3
-68 5 -71 25 -3 20 1 22 60 25 60 3 63 4 63 28 0 24 -3 25 -63 28 -59 3 -63 5
-60 25 3 20 10 22 71 25 64 3 67 4 67 27 0 25 -1 25 -95 25 l-95 0 0 -130z"/>
</g>
</svg>
