<svg xmlns="http://www.w3.org/2000/svg" viewBox="0 0 64 64">
  <rect width="64" height="64" rx="12" fill="#0A0E27"/>
  <svg x="14" y="8" width="36" height="48" viewBox="60 0 380 645" preserveAspectRatio="xMidYMid meet">
    <g transform="translate(0,763.535323) scale(0.1,-0.1)" fill="#fff" stroke="none">
<path d="M1825 7233 c-190 -12 -365 -45 -524 -99 -84 -29 -271 -114 -271 -123
0 -3 48 -21 105 -40 265 -85 525 -263 718 -491 l47 -55 47 55 c193 228 453
406 718 491 57 19 105 37 105 40 0 9 -187 94 -271 123 -204 69 -489 111 -674
99z"/>
<path d="M505 6845 c-31 -30 -32 -73 -3 -110 21 -27 23 -27 100 -20 43 3 78 4
78 0 0 -3 -22 -52 -49 -108 -64 -132 -82 -205 -88 -353 -6 -140 10 -241 58
-365 l29 -76 -20 -79 c-40 -160 -53 -282 -53 -484 0 -343 58 -596 208 -908
104 -215 207 -363 373 -534 93 -95 94 -97 87 -135 -13 -69 -56 -197 -98 -286
-25 -54 -37 -91 -31 -95 15 -10 312 -221 569 -404 121 -87 227 -157 235 -157
8 0 114 70 235 157 257 183 554 394 569 404 6 4 -6 41 -31 95 -42 89 -85 217
-98 286 -7 38 -6 40 87 135 166 171 269 319 373 534 150 312 208 565 208 908
0 202 -13 324 -53 484 l-20 79 29 76 c48 124 64 225 58 365 -6 148 -24 221
-88 353 -27 56 -49 105 -49 108 0 4 35 3 78 0 77 -7 79 -7 100 20 29 37 28 80
-3 110 -23 23 -31 25 -132 25 -304 0 -604 -102 -846 -287 -142 -108 -298 -293
-378 -447 -19 -36 -36 -66 -39 -66 -3 0 -20 30 -39 66 -229 442 -715 734
-1224 734 -101 0 -109 -2 -132 -25z m478 -176 c20 -5 37 -11 37 -13 0 -2 -20
-33 -45 -70 -103 -154 -115 -349 -30 -516 37 -73 132 -171 204 -209 179 -95
406 -74 554 50 l47 40 18 -43 c10 -24 43 -107 72 -185 30 -79 56 -143 60 -143
4 0 30 64 60 143 29 78 62 161 72 185 l18 44 42 -37 c53 -44 145 -89 216 -104
164 -34 326 13 448 131 104 100 154 217 154 364 0 105 -27 192 -85 280 -25 37
-43 69 -41 71 2 3 30 11 62 19 l57 15 24 -28 c56 -67 109 -153 134 -218 106
-277 25 -587 -203 -774 -82 -66 -177 -112 -313 -151 -326 -92 -407 -127 -553
-237 -46 -35 -87 -63 -92 -63 -5 0 -46 28 -92 63 -146 110 -227 144 -553 237
-198 56 -325 136 -421 264 -201 266 -189 601 30 869 33 40 30 39 119 16z m276
-114 c112 -62 114 -66 59 -79 -37 -9 -98 -63 -114 -103 -36 -86 5 -196 91
-240 38 -20 122 -20 161 0 64 33 95 84 107 176 1 8 30 -20 64 -63 l63 -78 -33
-45 c-62 -87 -155 -133 -268 -133 -97 0 -167 29 -234 95 -93 93 -122 233 -74
361 18 48 92 144 111 144 3 0 34 -16 67 -35z m1397 -9 c82 -86 108 -231 63
-351 -28 -76 -108 -156 -184 -184 -67 -25 -173 -28 -234 -6 -61 21 -127 70
-160 119 l-31 44 63 78 c34 43 63 71 64 63 12 -92 43 -143 107 -176 39 -20
123 -20 161 0 86 44 127 154 91 240 -17 41 -79 96 -117 104 -16 3 -31 9 -34
12 -2 4 22 22 53 41 31 18 66 39 77 46 30 19 35 18 81 -30z m-1756 -1043 c94
-71 209 -119 415 -172 105 -27 217 -61 249 -76 89 -39 185 -105 265 -180 l71
-67 71 67 c80 75 176 141 265 180 32 15 145 49 249 76 258 67 371 122 512 252
23 21 43 34 46 30 20 -34 32 -182 32 -388 -1 -211 -3 -240 -28 -356 -81 -383
-257 -703 -533 -969 -163 -157 -296 -249 -503 -348 l-113 -54 -152 76 c-83 42
-193 107 -245 144 -114 81 -289 246 -377 356 -178 221 -309 501 -371 795 -25
116 -27 145 -28 356 0 206 12 354 32 388 3 4 23 -9 46 -30 23 -21 67 -57 97
-80z m584 -1988 c96 -67 271 -159 364 -191 51 -18 53 -18 105 0 92 32 267 124
364 192 52 36 96 64 98 62 1 -2 10 -30 20 -63 9 -33 29 -84 45 -113 l28 -52
-126 -88 c-70 -49 -207 -144 -304 -211 l-178 -123 -177 123 c-98 67 -235 162
-305 211 l-126 88 28 52 c16 29 37 81 46 115 9 35 19 63 20 63 2 0 46 -29 98
-65z"/>
<path d="M1255 5088 c156 -326 227 -635 228 -1000 1 -108 3 -196 4 -194 8 8
33 158 43 258 27 279 -44 605 -187 853 -43 74 -140 215 -148 215 -2 0 25 -60
60 -132z"/>
<path d="M2553 5153 c-250 -343 -343 -775 -257 -1187 8 -39 16 -71 17 -72 1
-2 3 86 4 194 1 365 72 674 228 1000 35 72 62 132 60 132 -2 0 -25 -30 -52
-67z"/>
<path d="M1201 3003 l0 -98 344 -240 c189 -132 349 -240 355 -240 6 0 166 108
355 240 l344 240 0 98 c1 53 -1 97 -4 97 -3 0 -158 -106 -345 -235 -187 -129
-344 -235 -350 -235 -6 0 -163 106 -350 235 -187 129 -342 235 -345 235 -3 0
-5 -44 -4 -97z"/>
</g>
  </svg>
</svg>
