<svg xmlns="http://www.w3.org/2000/svg" viewBox="0 0 64 64" fill="currentColor" fill-rule="evenodd" aria-hidden="true">
  <!-- Silueta del búho (cabeza con orejas + cuerpo) con los ojos
       grandes como agujeros (evenodd). -->
  <path d="
    M14 12 L20 6 L24 18 L40 18 L44 6 L50 12
    C54 18 56 24 56 32
    C56 46 46 56 32 56
    C18 56 8 46 8 32
    C8 24 10 18 14 12 Z
    M22 28 a7 7 0 1 0 14 0 a7 7 0 1 0 -14 0 Z
    M37 28 a7 7 0 1 0 14 0 a7 7 0 1 0 -14 0 Z
  "/>
  <!-- Pupilas (circles separados, se dibujan encima de los agujeros) -->
  <circle cx="29" cy="28" r="2.5"/>
  <circle cx="44" cy="28" r="2.5"/>
</svg>
