<svg xmlns="http://www.w3.org/2000/svg" viewBox="0 0 360 240">
  <defs>
    <linearGradient id="mbg" x1="0" x2="0" y1="0" y2="1">
      <stop offset="0" stop-color="#e6e2d8"/>
      <stop offset="1" stop-color="#cdc8b9"/>
    </linearGradient>
  </defs>
  <rect width="360" height="240" rx="10" fill="url(#mbg)"/>
  <!-- window backdrop -->
  <rect x="20" y="20" width="320" height="100" rx="4" fill="#bcd5d0" opacity="0.6"/>
  <rect x="20" y="20" width="320" height="100" rx="4" fill="none" stroke="#fff" stroke-width="3"/>
  <line x1="180" y1="20" x2="180" y2="120" stroke="#fff" stroke-width="3"/>
  <line x1="20" y1="70" x2="340" y2="70" stroke="#fff" stroke-width="3"/>
  <!-- table -->
  <rect x="40" y="170" width="280" height="50" rx="6" fill="#7d6a52"/>
  <ellipse cx="180" cy="175" rx="140" ry="10" fill="#9a836a"/>
  <!-- person 1 -->
  <circle cx="120" cy="135" r="22" fill="#d9b896"/>
  <path d="M 90 175 Q 120 145 150 175 L 150 200 L 90 200 Z" fill="#3a4a5c"/>
  <!-- person 2 -->
  <circle cx="240" cy="135" r="22" fill="#c89a7a"/>
  <path d="M 210 175 Q 240 145 270 175 L 270 200 L 210 200 Z" fill="#5a4a3c"/>
  <!-- laptop on table -->
  <rect x="155" y="180" width="50" height="28" rx="2" fill="#1a1d3f"/>
  <rect x="159" y="184" width="42" height="20" rx="1" fill="#C2F73C" opacity="0.6"/>
</svg>
