<svg xmlns="http://www.w3.org/2000/svg" viewBox="0 0 520 360">
  <defs>
    <linearGradient id="fbg" x1="0" x2="1" y1="0" y2="1">
      <stop offset="0" stop-color="#e8e6e1"/>
      <stop offset="1" stop-color="#cdc8b9"/>
    </linearGradient>
    <linearGradient id="fscr" x1="0" x2="0" y1="0" y2="1">
      <stop offset="0" stop-color="#1b1f4a"/>
      <stop offset="1" stop-color="#0c0e2c"/>
    </linearGradient>
  </defs>
  <rect width="520" height="360" rx="10" fill="url(#fbg)"/>
  <!-- desk -->
  <rect x="0" y="280" width="520" height="80" fill="#b8b1a0"/>
  <!-- monitor -->
  <rect x="80" y="50" width="360" height="220" rx="10" fill="#1a1d3f" stroke="#2a2e5c" stroke-width="2"/>
  <rect x="92" y="62" width="336" height="196" rx="4" fill="url(#fscr)"/>
  <!-- ide-style code -->
  <rect x="92" y="62" width="80" height="196" fill="#13163a"/>
  <rect x="104" y="76" width="48" height="4" rx="1" fill="#fff" opacity="0.5"/>
  <rect x="104" y="86" width="38" height="4" rx="1" fill="#fff" opacity="0.35"/>
  <rect x="104" y="96" width="56" height="4" rx="1" fill="#C2F73C" opacity="0.7"/>
  <rect x="104" y="106" width="44" height="4" rx="1" fill="#fff" opacity="0.35"/>
  <rect x="104" y="116" width="52" height="4" rx="1" fill="#fff" opacity="0.5"/>
  <rect x="184" y="76" width="200" height="5" rx="2" fill="#C2F73C"/>
  <rect x="184" y="88" width="120" height="5" rx="2" fill="#fff" opacity="0.55"/>
  <rect x="196" y="100" width="180" height="5" rx="2" fill="#fff" opacity="0.35"/>
  <rect x="196" y="112" width="150" height="5" rx="2" fill="#fff" opacity="0.5"/>
  <rect x="196" y="124" width="100" height="5" rx="2" fill="#C2F73C" opacity="0.65"/>
  <rect x="184" y="138" width="80" height="5" rx="2" fill="#fff" opacity="0.4"/>
  <rect x="196" y="150" width="200" height="5" rx="2" fill="#fff" opacity="0.35"/>
  <rect x="196" y="162" width="160" height="5" rx="2" fill="#fff" opacity="0.5"/>
  <rect x="184" y="176" width="60" height="5" rx="2" fill="#C2F73C" opacity="0.65"/>
  <rect x="196" y="188" width="180" height="5" rx="2" fill="#fff" opacity="0.4"/>
  <rect x="196" y="200" width="140" height="5" rx="2" fill="#fff" opacity="0.3"/>
  <rect x="184" y="214" width="100" height="5" rx="2" fill="#fff" opacity="0.5"/>
  <rect x="196" y="226" width="170" height="5" rx="2" fill="#fff" opacity="0.35"/>
  <rect x="184" y="240" width="80" height="5" rx="2" fill="#C2F73C" opacity="0.7"/>
  <!-- mouse on desk -->
  <ellipse cx="460" cy="305" rx="14" ry="20" fill="#2a2e5c"/>
  <!-- coffee cup -->
  <rect x="40" y="280" width="32" height="36" rx="3" fill="#f4f1e8"/>
  <ellipse cx="56" cy="280" rx="16" ry="4" fill="#c0a78c"/>
</svg>
